<svg width="630" height="637" viewBox="0 0 630 637" fill="none" xmlns="http://www.w3.org/2000/svg">
<rect width="630" height="637" rx="20" fill="#FFF9E6"/>
<path fill-rule="evenodd" clip-rule="evenodd" d="M363.144 132.603C360.771 131.493 358.197 130.878 355.578 130.795C257.131 111.889 159.315 172.035 132.951 270.427C105.363 373.387 166.44 479.205 269.374 506.786C350.559 528.539 433.461 495.127 478.427 429.592C480.244 426.943 481.371 423.881 481.706 420.686C482.041 417.491 481.574 414.262 480.345 411.294C479.117 408.325 477.167 405.711 474.673 403.687C472.178 401.663 469.218 400.294 466.06 399.705C464.54 399.417 464.079 399.273 463.669 399.164L463.65 399.159L463.138 398.981C461.582 398.482 460.014 398.021 458.434 397.601C418.891 387.005 385.177 361.131 364.709 325.671C344.242 290.21 338.698 248.067 349.296 208.514C354.051 190.767 360.302 176.458 369.603 162.845C371.451 160.667 372.792 158.106 373.53 155.346L373.6 155.085C374.775 150.706 374.372 146.053 372.46 141.942C370.548 137.831 367.25 134.524 363.144 132.603Z" fill="black"/>
<ellipse cx="211.279" cy="300.782" rx="25.7319" ry="45.6998" fill="white"/>
<ellipse cx="289.091" cy="300.782" rx="25.7319" ry="45.6998" fill="white"/>
<path d="M238.547 287.082C227.439 297.647 200.889 312.437 183.547 287.082" stroke="black" stroke-width="10" stroke-linecap="round"/>
<path d="M317.547 287.082C306.237 297.647 279.204 312.437 261.547 287.082" stroke="black" stroke-width="10" stroke-linecap="round"/>
</svg>
