<svg width="630" height="637" viewBox="0 0 630 637" fill="none" xmlns="http://www.w3.org/2000/svg">
<rect width="630" height="637" rx="20" fill="#F2F2FF"/>
<path d="M314.5 462.104L421.924 526.992C441.597 538.884 465.671 521.305 460.493 499.072L432.02 377.052L527.019 294.843C544.362 279.849 535.043 251.413 512.264 249.603L387.238 239.004L338.315 123.705C329.514 102.765 299.486 102.765 290.685 123.705L241.762 238.745L116.736 249.344C93.9567 251.154 84.6379 279.591 101.981 294.585L196.98 376.793L168.507 498.814C163.329 521.046 187.403 538.625 207.076 526.733L314.5 462.104Z" fill="black"/>
<ellipse cx="275.593" cy="319.619" rx="25.7319" ry="45.6998" fill="white"/>
<ellipse cx="353.406" cy="319.619" rx="25.7319" ry="45.6998" fill="white"/>
<ellipse cx="285.5" cy="321" rx="17.5" ry="31" fill="black"/>
<ellipse cx="344.5" cy="321" rx="17.5" ry="31" fill="black"/>
</svg>
