<svg width="630" height="637" viewBox="0 0 630 637" fill="none" xmlns="http://www.w3.org/2000/svg">
<rect width="630" height="637" rx="20" fill="#FFF1F5"/>
<path d="M313.849 207.171C306.064 207.171 292.911 208.365 287.308 208.962L155.483 124.788C153.812 124.02 149.467 122.946 145.456 124.788C141.445 126.63 140.836 130.843 141.032 132.719V408.779C141.032 436.411 150.732 455.577 184.384 481.44C199.031 492.698 244.015 515.212 306.772 515.212C369.528 515.212 413.332 498.838 427.39 490.651C460.375 475.747 489.616 445.136 489.616 408.779V156.513C490.402 148.155 490.5 130.161 484.602 125.044C478.704 119.927 472.118 122.4 469.562 124.276L339.802 208.962C334.395 208.365 321.635 207.171 313.849 207.171Z" fill="black"/>
<ellipse cx="364.724" cy="318.606" rx="33.3083" ry="59.2475" fill="white"/>
<ellipse cx="266.275" cy="318.606" rx="33.3083" ry="59.2475" fill="white"/>
<ellipse cx="22.5" cy="39.5" rx="22.5" ry="39.5" transform="matrix(-1 0 0 1 387 279)" fill="black"/>
<ellipse cx="22" cy="39.5" rx="22" ry="39.5" transform="matrix(-1 0 0 1 288 279)" fill="black"/>
<rect x="343.846" y="224.021" width="107" height="66" transform="rotate(20 343.846 224.021)" fill="black"/>
<rect width="107" height="66" transform="matrix(-0.939693 0.34202 0.34202 0.939693 290.818 224.021)" fill="black"/>
</svg>
