<svg width="362" height="412" viewBox="0 0 362 412" fill="none" xmlns="http://www.w3.org/2000/svg">
<rect x="9" width="344" height="354" rx="12" fill="white"/>
<path d="M361 410.903H2.03597H1V193.081L9.28777 187.146V193.081H13.6906C14.554 193.081 16.9022 193.598 19.3885 195.662C21.8748 197.727 84.6547 247.451 115.734 272.055H247.302C277.777 247.709 339.452 198.398 342.353 195.92C345.253 193.443 348.396 192.479 349.604 192.307H353.23V187.404L361 192.307V410.903Z" fill="#EDF5FC"/>
<path d="M361 410.903H2.03597H1M361 410.903V192.307M361 410.903C333.115 367.029 276.879 278.558 275.014 275.668C273.15 272.777 270.439 272.055 269.317 272.055H247.302M361 192.307L353.23 187.404V192.307M361 192.307H353.23M247.302 272.055C277.777 247.709 339.452 198.398 342.353 195.92C345.253 193.443 348.396 192.479 349.604 192.307H353.23M247.302 272.055H115.734M1 193.081L9.28777 187.146V193.081M1 193.081V410.903M1 193.081H9.28777M115.734 272.055C84.6547 247.451 21.8748 197.727 19.3885 195.662C16.9022 193.598 14.554 193.081 13.6906 193.081H9.28777M115.734 272.055H92.1655C91.0432 272.055 88.3842 272.571 86.7266 274.636C85.0691 276.7 28.8849 366.341 1 410.903" stroke="#D0D0D0" stroke-width="0.5"/>
<path d="M361 192.404V411C333.115 367.126 276.879 278.655 275.014 275.765C273.15 272.874 270.439 272.151 269.317 272.151H247.302C277.777 247.806 339.452 198.495 342.353 196.017C345.253 193.539 348.396 192.576 349.604 192.404H353.23H361Z" fill="#E5F2FD"/>
<path d="M19.3885 195.759C16.9022 193.694 14.554 193.178 13.6906 193.178H9.28777H1V411C28.8849 366.438 85.0691 276.797 86.7266 274.732C88.3842 272.668 91.0432 272.151 92.1655 272.151H115.734C84.6547 247.548 21.8748 197.824 19.3885 195.759Z" fill="#E5F2FD"/>
<path d="M361 192.404V411C333.115 367.126 276.879 278.655 275.014 275.765C273.15 272.874 270.439 272.151 269.317 272.151H247.302C277.777 247.806 339.452 198.495 342.353 196.017C345.253 193.539 348.396 192.576 349.604 192.404H353.23H361Z" stroke="#D0D0D0" stroke-width="0.5"/>
<path d="M19.3885 195.759C16.9022 193.694 14.554 193.178 13.6906 193.178H9.28777H1V411C28.8849 366.438 85.0691 276.797 86.7266 274.732C88.3842 272.668 91.0432 272.151 92.1655 272.151H115.734C84.6547 247.548 21.8748 197.824 19.3885 195.759Z" stroke="#D0D0D0" stroke-width="0.5"/>
</svg>
