<svg width="617" height="641" viewBox="0 0 617 641" fill="none" xmlns="http://www.w3.org/2000/svg">
<rect x="14" width="589" height="543" rx="12" fill="white"/>
<path d="M616 640H2.76978H1V267.16L15.1583 257V267.16H22.6799C24.1547 267.16 28.1662 268.044 32.4137 271.578C36.6612 275.112 143.91 360.223 197.004 402.337H421.766C473.827 360.665 579.189 276.26 584.144 272.02C589.099 267.779 594.468 266.13 596.532 265.835H602.727V257.442L616 265.835V640Z" fill="#EDF5FC"/>
<path d="M616 640H2.76978H1M616 640V265.835M616 640C568.363 564.902 472.294 413.469 469.108 408.521C465.922 403.574 461.291 402.337 459.374 402.337H421.766M616 265.835L602.727 257.442V265.835M616 265.835H602.727M421.766 402.337C473.827 360.665 579.189 276.26 584.144 272.02C589.099 267.779 594.468 266.13 596.532 265.835H602.727M421.766 402.337H197.004M1 267.16L15.1583 257V267.16M1 267.16V640M1 267.16H15.1583M197.004 402.337C143.91 360.223 36.6612 275.112 32.4137 271.578C28.1662 268.044 24.1547 267.16 22.6799 267.16H15.1583M197.004 402.337H156.741C154.824 402.337 150.281 403.22 147.45 406.754C144.618 410.288 48.6367 563.724 1 640" stroke="#D0D0D0"/>
</svg>
