<svg width="128" height="497" viewBox="0 0 128 497" fill="none" xmlns="http://www.w3.org/2000/svg">
<path d="M24.1419 19.2846L40.5624 47.7257L14.2142 44.859L11.838 53.727L41.507 57.7631L30.5361 83.0579L40.4474 85.7137L48.9636 62.277L66.3388 92.3717L73.9451 87.9802L56.5699 57.8855L85.9082 62.1125L88.2844 53.2445L56.7198 48.98L64.9665 18.2028L56.0985 15.8267L48.8302 42.9523L32.4097 14.5112L24.1419 19.2846Z" fill="white"/>
<path fill-rule="evenodd" clip-rule="evenodd" d="M14.3168 482C14.5185 470.586 22.0339 443.848 50.481 428.205C57.5346 424.739 71.7051 419.428 79.7531 422.032C84.6172 417.041 100.062 407.831 108.2 403.08L112.914 411.652C105.549 415.703 94.4787 423.996 89.8645 427.636C93.0283 433.89 98.1304 448.231 93.228 455.558C88.3257 462.885 81.449 463.966 78.6235 463.59C58.6753 457.797 63.3507 442.542 71.2215 431.331C34.4634 443.291 24.8583 472.094 24.6505 485L14.3168 482ZM81.928 435.761C75.6576 443.124 71.1439 451.465 79.1958 453.351C90.5868 456.018 85.7636 442.736 81.928 435.761Z" fill="#FBC9D7"/>
</svg>
