<svg width="274" height="214" viewBox="0 0 274 214" fill="none" xmlns="http://www.w3.org/2000/svg">
<path d="M247.269 15.697C245.928 5.02974 239.203 8.08429 236.008 10.945C236.131 9.89101 235.524 7.33781 232.107 5.55674C227.836 3.33041 223.202 7.62411 221.106 11.6438C219.011 15.6636 218.86 20.8566 223.005 23.0175C226.321 24.7462 229.083 23.3101 230.049 22.376C229.343 24.1382 228.912 28.1733 232.831 30.2163C236.751 32.2593 239.986 29.2599 241.114 27.5049C240.306 29.0541 239.797 32.7289 244.218 35.0338C248.64 37.3387 251.874 34.4449 252.938 32.7099C252.926 34.6739 253.656 38.9947 256.67 40.5663C260.439 42.5307 263.3 41.9453 266.094 37.8107C268.33 34.5029 269.863 30.9891 270.351 29.6456C270.989 28.1146 271.085 24.437 266.362 21.975C261.638 19.5129 258.762 21.7411 257.915 23.163C258.5 12.4776 251.062 13.7334 247.269 15.697Z" fill="#BFE2F9"/>
<path d="M223.186 193.712C229.866 189.426 235.971 189.973 238.189 190.783C239.525 193.14 239.844 199.365 230.431 205.405C218.665 212.955 216.743 208.295 215.768 206.777C214.793 205.26 214.837 199.07 223.186 193.712Z" fill="white"/>
<path d="M227.941 164.406C214.885 172.784 217.004 177.139 219.696 178.27C223.291 180.249 232.302 183.04 239.589 178.364C246.876 173.688 247.741 169.918 247.263 168.617C246.262 163.723 240.997 156.028 227.941 164.406Z" fill="white"/>
<path d="M188.796 185.238C197.602 179.588 202.539 181.599 203.907 183.311C206.588 187.485 201.802 192.966 197.627 195.646C194.287 197.789 188.538 197.906 186.081 197.697C183.317 195.898 179.991 190.888 188.796 185.238Z" fill="white"/>
<path d="M11.9854 20.5744L20.1374 34.6941L7.05672 33.2709L5.87706 37.6735L20.6064 39.6772L15.1598 52.235L20.0803 53.5535L24.3083 41.9182L32.9343 56.8589L36.7105 54.6787L28.0845 39.738L42.6496 41.8365L43.8293 37.434L28.1588 35.3168L32.253 20.0373L27.8504 18.8577L24.242 32.3244L16.09 18.2046L11.9854 20.5744Z" fill="white"/>
<path d="M45.5498 168.454C45.6154 162.57 49.4383 148.696 64.2058 140.27C67.8689 138.394 75.831 135.22 78.3744 137.533C80.8914 134.899 89.9684 129.135 94.1922 126.582L96.6782 130.939C92.8544 133.121 87.1154 137.536 84.7239 139.471C86.394 142.654 89.1021 149.978 86.5733 153.817C84.0445 157.655 80.4652 158.3 78.9917 158.142C68.578 155.414 70.9611 147.492 75.0231 141.615C55.9125 148.25 51.0079 163.215 50.9445 169.868L45.5498 168.454Z" fill="#FFDEE7"/>
<path d="M180.682 46L177.839 57.1839L167.412 54.0987L174.237 65.0897L164 71.2601L174.237 73.9596L170.635 84.7578L180.114 78.7803L185.991 89L189.592 78.2018L201.915 80.9013L195.28 70.4888L204 65.0897L193.953 62.3901L196.417 51.5919L186.559 56.4126L180.682 46Z" fill="#FFEBA9"/>
</svg>
