<svg width="617" height="642" viewBox="0 0 617 642" fill="none" xmlns="http://www.w3.org/2000/svg">
<rect x="14" width="589" height="543" rx="12" fill="white"/>
<path d="M616 640H2.76978H1V267.16L15.1583 257V267.16H22.6799C24.1547 267.16 28.1662 268.044 32.4137 271.578C36.6612 275.112 143.91 360.223 197.004 402.337H421.766C473.827 360.665 579.189 276.26 584.144 272.02C589.099 267.779 594.468 266.13 596.532 265.835H602.727V257.442L616 265.835V640Z" fill="#EDF5FC"/>
<path d="M616 640H2.76978H1M616 640V265.835M616 640C568.363 564.902 472.294 413.469 469.108 408.521C465.922 403.574 461.291 402.337 459.374 402.337H421.766M616 265.835L602.727 257.442V265.835M616 265.835H602.727M421.766 402.337C473.827 360.665 579.189 276.26 584.144 272.02C589.099 267.779 594.468 266.13 596.532 265.835H602.727M421.766 402.337H197.004M1 267.16L15.1583 257V267.16M1 267.16V640M1 267.16H15.1583M197.004 402.337C143.91 360.223 36.6612 275.112 32.4137 271.578C28.1662 268.044 24.1547 267.16 22.6799 267.16H15.1583M197.004 402.337H156.741C154.824 402.337 150.281 403.22 147.45 406.754C144.618 410.288 48.6367 563.724 1 640" stroke="#D0D0D0"/>
<path d="M616 266V640.165C568.363 565.067 472.294 413.634 469.108 408.686C465.922 403.739 461.291 402.502 459.374 402.502H421.766C473.827 360.83 579.189 276.425 584.144 272.185C589.099 267.944 594.468 266.295 596.532 266H602.727H616Z" fill="#E5F2FD"/>
<path d="M32.4137 271.743C28.1662 268.209 24.1547 267.325 22.6799 267.325H15.1583H1V640.165C48.6367 563.889 144.618 410.453 147.45 406.919C150.281 403.385 154.824 402.502 156.741 402.502H197.004C143.91 360.388 36.6612 275.277 32.4137 271.743Z" fill="#E5F2FD"/>
<path d="M616 266V640.165C568.363 565.067 472.294 413.634 469.108 408.686C465.922 403.739 461.291 402.502 459.374 402.502H421.766C473.827 360.83 579.189 276.425 584.144 272.185C589.099 267.944 594.468 266.295 596.532 266H602.727H616Z" stroke="#D0D0D0"/>
<path d="M32.4137 271.743C28.1662 268.209 24.1547 267.325 22.6799 267.325H15.1583H1V640.165C48.6367 563.889 144.618 410.453 147.45 406.919C150.281 403.385 154.824 402.502 156.741 402.502H197.004C143.91 360.388 36.6612 275.277 32.4137 271.743Z" stroke="#D0D0D0"/>
<ellipse cx="309" cy="487.5" rx="89" ry="34.5" fill="white"/>
<ellipse cx="326.899" cy="460.271" rx="2.47983" ry="2.70374" transform="rotate(22.8547 326.899 460.271)" fill="black"/>
<ellipse cx="1.68153" cy="4.20383" rx="1.68153" ry="4.20383" transform="matrix(-0.702649 0.711537 0.711537 0.702649 268.461 474.564)" fill="#121212"/>
<ellipse cx="1.68153" cy="4.20383" rx="1.68153" ry="4.20383" transform="matrix(-0.702649 0.711537 0.711537 0.702649 272.922 468.799)" fill="#121212"/>
<path d="M270.145 496.496C266.535 495.496 258.638 494.496 255.931 498.495C252.547 503.495 258.638 509.994 270.145 496.496ZM270.145 496.496C275.108 487.663 287.607 470.299 297.895 471.499C305.612 472.399 298.22 484.817 294.143 494.5M327 460C324.084 467.841 318.899 479.763 313 489.505M294.143 494.5C291.425 500.955 290.179 506.194 295.865 505.994C301.356 505.801 307.49 498.604 313 489.505M294.143 494.5C298.095 486.503 307.4 474.309 313 489.505" stroke="black" stroke-width="5" stroke-linejoin="round"/>
<path d="M329.601 510C329.373 508.438 329.137 506.891 328.893 505.361C328.648 503.831 328.404 502.301 328.16 500.771H320.226C319.965 502.301 319.713 503.831 319.469 505.361C319.241 506.891 319.013 508.438 318.785 510H314.146C314.667 508.031 315.18 506.004 315.685 503.921C316.189 501.821 316.669 499.738 317.125 497.671C317.581 495.588 318.012 493.545 318.419 491.543C318.842 489.525 319.225 487.604 319.566 485.781C319.924 483.942 320.25 482.233 320.543 480.654C320.836 479.076 321.088 477.676 321.3 476.455H327.086C327.298 477.676 327.55 479.076 327.843 480.654C328.136 482.233 328.453 483.942 328.795 485.781C329.153 487.604 329.535 489.525 329.942 491.543C330.366 493.545 330.805 495.588 331.261 497.671C331.716 499.738 332.197 501.821 332.701 503.921C333.206 506.004 333.718 508.031 334.239 510H329.601ZM324.01 481.387C323.342 484.154 322.74 486.904 322.203 489.639C321.666 492.373 321.161 495.132 320.689 497.915H327.672C327.2 495.132 326.687 492.373 326.134 489.639C325.597 486.904 325.003 484.154 324.352 481.387H324.01ZM332.39 510.659C331.657 510.659 331.006 510.618 330.437 510.537C329.867 510.472 329.509 510.423 329.362 510.391V506.924C329.444 506.956 329.574 506.997 329.753 507.046C329.948 507.095 330.168 507.144 330.412 507.192C330.673 507.241 330.949 507.29 331.242 507.339C331.535 507.371 331.82 507.388 332.097 507.388C333.041 507.388 333.781 507.095 334.318 506.509C334.872 505.907 335.368 504.987 335.808 503.75C336.035 503.083 336.271 502.391 336.516 501.675C336.76 500.942 337.012 500.177 337.272 499.38C336.849 498.127 336.385 496.816 335.881 495.449C335.393 494.082 334.888 492.707 334.367 491.323C333.846 489.924 333.326 488.54 332.805 487.173C332.284 485.789 331.771 484.455 331.267 483.169C330.778 481.883 330.306 480.671 329.851 479.531C329.411 478.392 329.012 477.367 328.654 476.455H333.195C333.505 477.708 333.895 479.116 334.367 480.679C334.839 482.241 335.336 483.828 335.856 485.439C336.394 487.051 336.923 488.63 337.443 490.176C337.964 491.706 338.436 493.081 338.859 494.302C339.396 492.528 339.925 490.754 340.446 488.979C340.967 487.205 341.447 485.529 341.887 483.95C342.326 482.355 342.709 480.915 343.034 479.629C343.376 478.327 343.636 477.269 343.815 476.455H348.356C347.819 478.05 347.193 479.906 346.477 482.021C345.76 484.137 344.995 486.432 344.182 488.906C343.384 491.364 342.562 493.952 341.716 496.67C340.869 499.372 340.048 502.098 339.25 504.849C338.68 506.802 337.85 508.258 336.76 509.219C335.686 510.179 334.229 510.659 332.39 510.659Z" fill="black"/>
</svg>
