<svg width="506" height="688" viewBox="0 0 506 688" fill="none" xmlns="http://www.w3.org/2000/svg">
<path d="M436.47 41.3988C432.934 13.2653 415.197 21.3213 406.77 28.866C407.095 26.0863 405.493 19.3526 396.482 14.6552C385.218 8.78353 372.995 20.1076 367.469 30.7092C361.942 41.3107 361.544 55.0067 372.477 60.7057C381.223 65.2649 388.506 61.4775 391.054 59.0139C389.194 63.6614 388.056 74.3036 398.392 79.6918C408.729 85.0799 417.262 77.1694 420.237 72.5406C418.107 76.6266 416.763 86.3184 428.424 92.3973C440.086 98.4762 448.615 90.8441 451.421 86.2682C451.389 91.4479 453.314 102.844 461.265 106.988C471.204 112.169 478.75 110.626 486.119 99.7209C492.015 90.9971 496.059 81.7297 497.345 78.1865C499.028 74.1486 499.281 64.4496 486.824 57.9562C474.367 51.4628 466.782 57.3395 464.546 61.0895C466.091 32.908 446.473 36.2201 436.47 41.3988Z" fill="#BFE2F9"/>
<path d="M34.8131 131.902L56.3131 169.141L21.8143 165.388L18.7031 176.999L57.5499 182.284L43.1852 215.403L56.1624 218.881L67.3131 188.194L90.0631 227.598L100.022 221.848L77.2723 182.444L115.686 187.979L118.797 176.367L77.4685 170.784L88.2662 130.486L76.655 127.375L67.1384 162.891L45.6384 125.652L34.8131 131.902Z" fill="white"/>
<path d="M368 204L360.5 233L333 225L351 253.5L324 269.5L351 276.5L341.5 304.5L366.5 289L382 315.5L391.5 287.5L424 294.5L406.5 267.5L429.5 253.5L403 246.5L409.5 218.5L383.5 231L368 204Z" fill="#FFEBA9"/>
<path fill-rule="evenodd" clip-rule="evenodd" d="M0 472C7.83333 458.333 34.7 431 79.5 431C90.3333 431.5 111 434.5 119 443C128.2 440.2 153 439.333 166 439V452.5C154.4 452.5 135.5 455.167 127.5 456.5C127.167 466.167 123.8 486.9 113 492.5C102.2 498.1 93.1667 494.833 90 492.5C69.731 472.231 85.5285 456.893 102.5 448.572C50.1 438.591 19.3333 467.032 10.5 482.5L0 472ZM112.5 461.048C100.022 465.781 89.0178 472.866 97.5002 480.5C109.5 491.3 112.5 472.032 112.5 461.048Z" fill="#FBC9D7"/>
<path d="M409.198 637.85C426.427 620.587 445.091 618.233 452.269 619.214C457.816 625.426 462.841 643.931 438.564 668.257C408.217 698.665 399.409 685.913 395.494 681.989C391.578 678.066 387.662 659.429 409.198 637.85Z" fill="white"/>
<path d="M404.302 546.63C370.629 580.372 379.83 592.077 388.64 593.712C400.713 597.308 429.557 599.793 448.352 580.961C467.147 562.128 467.277 550.227 464.993 546.63C458.794 532.571 437.976 512.889 404.302 546.63Z" fill="white"/>
<path d="M300.54 634.908C323.25 612.152 339.369 614.963 344.59 619.214C355.359 630.004 344.59 649.62 333.82 660.411C325.205 669.043 308.043 673.162 300.54 674.143C291.077 670.546 277.829 657.664 300.54 634.908Z" fill="white"/>
</svg>
