<svg width="202" height="696" viewBox="0 0 202 696" fill="none" xmlns="http://www.w3.org/2000/svg">
<path d="M132.472 41.3988C128.936 13.2653 111.199 21.3213 102.772 28.866C103.097 26.0863 101.495 19.3526 92.4839 14.6552C81.2197 8.78353 68.997 20.1076 63.4707 30.7092C57.9444 41.3107 57.5462 55.0067 68.479 60.7057C77.2253 65.2649 84.5082 61.4775 87.0564 59.0139C85.1955 63.6614 84.0578 74.3036 94.3943 79.6918C104.731 85.0799 113.264 77.1694 116.239 72.5406C114.109 76.6266 112.764 86.3184 124.426 92.3973C136.088 98.4762 144.617 90.8441 147.423 86.2682C147.391 91.4479 149.316 102.844 157.267 106.988C167.206 112.169 174.752 110.626 182.121 99.7209C188.017 90.9971 192.061 81.7297 193.347 78.1865C195.03 74.1486 195.283 64.4496 182.826 57.9562C170.369 51.4628 162.784 57.3395 160.548 61.0895C162.093 32.908 142.475 36.2201 132.472 41.3988Z" fill="#BFE2F9"/>
<path d="M27.5261 283L22.8341 301.206L5.63033 296.184L16.891 314.076L0 324.121L16.891 328.516L10.9479 346.094L26.5877 336.363L36.2844 353L42.2275 335.422L62.5592 339.816L51.6114 322.865L66 314.076L49.4218 309.682L53.4882 292.103L37.2227 299.951L27.5261 283Z" fill="#FFEBA9"/>
<path d="M152.451 667.164C162.323 657.237 173.018 655.884 177.132 656.448C180.31 660.02 183.19 670.661 169.278 684.648C151.889 702.132 146.841 694.8 144.597 692.544C142.354 690.288 140.11 679.572 152.451 667.164Z" fill="white"/>
<path d="M149.645 614.713C130.349 634.114 135.622 640.844 140.67 641.784C147.588 643.852 164.117 645.281 174.887 634.452C185.657 623.624 185.732 616.781 184.423 614.713C180.871 606.629 168.941 595.311 149.645 614.713Z" fill="white"/>
<path d="M90.1856 665.472C103.199 652.387 112.436 654.004 115.428 656.448C121.599 662.653 115.428 673.931 109.257 680.136C104.32 685.1 94.4856 687.468 90.1856 688.032C84.7632 685.964 77.1718 678.557 90.1856 665.472Z" fill="white"/>
</svg>
