<svg width="1143" height="696" viewBox="0 0 1143 696" fill="none" xmlns="http://www.w3.org/2000/svg">
<path d="M1073.47 41.3988C1069.94 13.2653 1052.2 21.3213 1043.77 28.866C1044.1 26.0863 1042.5 19.3526 1033.48 14.6552C1022.22 8.78353 1010 20.1076 1004.47 30.7092C998.944 41.3107 998.546 55.0067 1009.48 60.7057C1018.23 65.2649 1025.51 61.4775 1028.06 59.0139C1026.2 63.6614 1025.06 74.3036 1035.39 79.6918C1045.73 85.0799 1054.26 77.1694 1057.24 72.5406C1055.11 76.6266 1053.76 86.3184 1065.43 92.3973C1077.09 98.4762 1085.62 90.8441 1088.42 86.2682C1088.39 91.4479 1090.32 102.844 1098.27 106.988C1108.21 112.169 1115.75 110.626 1123.12 99.7209C1129.02 90.9971 1133.06 81.7297 1134.35 78.1865C1136.03 74.1486 1136.28 64.4496 1123.83 57.9562C1111.37 51.4628 1103.78 57.3395 1101.55 61.0895C1103.09 32.908 1083.47 36.2201 1073.47 41.3988Z" fill="#BFE2F9"/>
<path d="M24.1419 150.285L40.5624 178.726L14.2142 175.859L11.838 184.727L41.507 188.763L30.5361 214.058L40.4474 216.714L48.9636 193.277L66.3388 223.372L73.9451 218.98L56.5699 188.885L85.9082 193.112L88.2844 184.244L56.7198 179.98L64.9665 149.203L56.0985 146.827L48.8302 173.952L32.4097 145.511L24.1419 150.285Z" fill="white"/>
<path d="M968.526 283L963.834 301.206L946.63 296.184L957.891 314.076L941 324.121L957.891 328.516L951.948 346.094L967.588 336.363L977.284 353L983.227 335.422L1003.56 339.816L992.611 322.865L1007 314.076L990.422 309.682L994.488 292.103L978.223 299.951L968.526 283Z" fill="#FFEBA9"/>
<path fill-rule="evenodd" clip-rule="evenodd" d="M14.3168 613C14.5185 601.586 22.0339 574.848 50.481 559.205C57.5346 555.739 71.7051 550.428 79.7531 553.032C84.6172 548.041 100.062 538.831 108.2 534.08L112.914 542.652C105.549 546.703 94.4787 554.996 89.8645 558.636C93.0283 564.89 98.1304 579.231 93.228 586.558C88.3257 593.885 81.449 594.966 78.6235 594.59C58.6753 588.797 63.3507 573.542 71.2215 562.331C34.4634 574.291 24.8583 603.094 24.6505 616L14.3168 613ZM81.928 566.761C75.6576 574.124 71.1439 582.465 79.1958 584.351C90.5868 587.018 85.7636 573.736 81.928 566.761Z" fill="#FBC9D7"/>
<path d="M1093.45 667.164C1103.32 657.237 1114.02 655.884 1118.13 656.448C1121.31 660.02 1124.19 670.661 1110.28 684.648C1092.89 702.132 1087.84 694.8 1085.6 692.544C1083.35 690.288 1081.11 679.572 1093.45 667.164Z" fill="white"/>
<path d="M1090.65 614.713C1071.35 634.114 1076.62 640.844 1081.67 641.784C1088.59 643.852 1105.12 645.281 1115.89 634.452C1126.66 623.624 1126.73 616.781 1125.42 614.713C1121.87 606.629 1109.94 595.311 1090.65 614.713Z" fill="white"/>
<path d="M1031.19 665.472C1044.2 652.387 1053.44 654.004 1056.43 656.448C1062.6 662.653 1056.43 673.931 1050.26 680.136C1045.32 685.1 1035.49 687.468 1031.19 688.032C1025.76 685.964 1018.17 678.557 1031.19 665.472Z" fill="white"/>
</svg>
