<svg width="1464" height="693" viewBox="0 0 1464 693" fill="none" xmlns="http://www.w3.org/2000/svg">
<path d="M102.814 550.373C117.429 535.699 133.262 533.698 139.352 534.532C144.057 539.812 148.32 555.542 127.725 576.219C101.982 602.065 94.51 591.226 91.1884 587.891C87.8668 584.556 84.5451 568.715 102.814 550.373Z" fill="white"/>
<path d="M98.6611 472.836C70.0951 501.516 77.9009 511.466 85.3746 512.855C95.6161 515.912 120.085 518.024 136.029 502.017C151.973 486.009 152.083 475.893 150.146 472.836C144.887 460.886 127.227 444.156 98.6611 472.836Z" fill="white"/>
<path d="M10.6375 547.872C29.9029 528.529 43.5769 530.919 48.0058 534.532C57.1414 543.704 48.0058 560.377 38.8702 569.549C31.5617 576.887 17.0032 580.388 10.6375 581.221C2.61018 578.164 -8.628 567.215 10.6375 547.872Z" fill="white"/>
<path d="M1394.47 42.3988C1390.94 14.2653 1373.2 22.3213 1364.77 29.866C1365.1 27.0863 1363.5 20.3526 1354.48 15.6552C1343.22 9.78353 1331 21.1076 1325.47 31.7092C1319.94 42.3107 1319.55 56.0067 1330.48 61.7057C1339.23 66.2649 1346.51 62.4775 1349.06 60.0139C1347.2 64.6614 1346.06 75.3036 1356.39 80.6918C1366.73 86.0799 1375.26 78.1694 1378.24 73.5406C1376.11 77.6266 1374.76 87.3184 1386.43 93.3973C1398.09 99.4762 1406.62 91.8441 1409.42 87.2682C1409.39 92.4479 1411.32 103.844 1419.27 107.988C1429.21 113.169 1436.75 111.626 1444.12 100.721C1450.02 91.9971 1454.06 82.7297 1455.35 79.1865C1457.03 75.1486 1457.28 65.4496 1444.83 58.9562C1432.37 52.4628 1424.78 58.3395 1422.55 62.0895C1424.09 33.908 1404.47 37.2201 1394.47 42.3988Z" fill="#BFE2F9"/>
<path d="M1339.01 472.182L1355.35 500.473L1329.14 497.621L1326.78 506.442L1356.29 510.457L1345.37 535.618L1355.23 538.26L1363.7 514.947L1380.99 544.883L1388.55 540.514L1371.27 510.579L1400.45 514.784L1402.82 505.963L1371.42 501.721L1379.62 471.106L1370.8 468.743L1363.57 495.725L1347.24 467.434L1339.01 472.182Z" fill="white"/>
<path d="M1208 581L1200.5 610L1173 602L1191 630.5L1164 646.5L1191 653.5L1181.5 681.5L1206.5 666L1222 692.5L1231.5 664.5L1264 671.5L1246.5 644.5L1269.5 630.5L1243 623.5L1249.5 595.5L1223.5 608L1208 581Z" fill="#FFEBA9"/>
<path fill-rule="evenodd" clip-rule="evenodd" d="M117 41C124.833 27.3333 151.7 0 196.5 0C207.333 0.5 228 3.5 236 12C245.2 9.2 270 8.33333 283 8V21.5C271.4 21.5 252.5 24.1667 244.5 25.5C244.167 35.1667 240.8 55.9 230 61.5C219.2 67.1 210.167 63.8333 207 61.5C186.731 41.231 202.528 25.8935 219.5 17.572C167.1 7.59141 136.333 36.0321 127.5 51.5L117 41ZM229.5 30.0479C217.022 34.7815 206.018 41.866 214.5 49.5001C226.5 60.3001 229.5 41.0319 229.5 30.0479Z" fill="#FBC9D7"/>
</svg>
