<svg width="151" height="136" viewBox="0 0 151 136" fill="none" xmlns="http://www.w3.org/2000/svg">
<path d="M102.814 93.3725C117.429 78.6988 133.262 76.6979 139.352 77.5316C144.057 82.8119 148.32 98.5417 127.725 119.219C101.982 145.065 94.51 134.226 91.1884 130.891C87.8668 127.556 84.5451 111.715 102.814 93.3725Z" fill="white"/>
<path d="M98.6611 15.8359C70.0951 44.5163 77.9009 54.4655 85.3746 55.8551C95.6161 58.9121 120.085 61.0243 136.029 45.0167C151.973 29.009 152.083 18.893 150.146 15.8359C144.887 3.88576 127.227 -12.8445 98.6611 15.8359Z" fill="white"/>
<path d="M10.6375 90.8719C29.9029 71.5293 43.5769 73.919 48.0058 77.5316C57.1414 86.7038 48.0058 103.377 38.8702 112.549C31.5617 119.887 17.0032 123.388 10.6375 124.221C2.61018 121.164 -8.628 110.215 10.6375 90.8719Z" fill="white"/>
</svg>
