<svg width="136" height="97" viewBox="0 0 136 97" fill="none" xmlns="http://www.w3.org/2000/svg">
<path d="M73.4722 28.3988C69.9363 0.265288 52.1985 8.32129 43.7716 15.866C44.0971 13.0863 42.4952 6.35255 33.4839 1.65521C22.2197 -4.21647 9.99698 7.10761 4.47069 17.7092C-1.0556 28.3107 -1.45381 42.0067 9.47904 47.7057C18.2253 52.2649 25.5082 48.4775 28.0564 46.0139C26.1955 50.6614 25.0578 61.3036 35.3943 66.6918C45.7308 72.0799 54.2642 64.1694 57.2388 59.5406C55.1089 63.6266 53.7645 73.3184 65.4262 79.3973C77.0879 85.4762 85.6165 77.8441 88.4231 73.2682C88.3914 78.4479 90.3158 89.8436 98.267 93.9883C108.206 99.1692 115.752 97.6255 123.121 86.7209C129.017 77.9971 133.061 68.7297 134.347 65.1865C136.03 61.1486 136.283 51.4496 123.826 44.9562C111.369 38.4628 103.784 44.3395 101.548 48.0895C103.093 19.908 83.4746 23.2201 73.4722 28.3988Z" fill="#BFE2F9"/>
</svg>
