<svg width="166" height="65" viewBox="0 0 166 65" fill="none" xmlns="http://www.w3.org/2000/svg">
<path fill-rule="evenodd" clip-rule="evenodd" d="M0 41C7.83333 27.3333 34.7 0 79.5 0C90.3333 0.5 111 3.5 119 12C128.2 9.2 153 8.33333 166 8V21.5C154.4 21.5 135.5 24.1667 127.5 25.5C127.167 35.1667 123.8 55.9 113 61.5C102.2 67.1 93.1667 63.8333 90 61.5C69.731 41.231 85.5285 25.8935 102.5 17.572C50.1 7.59141 19.3333 36.0321 10.5 51.5L0 41ZM112.5 30.0479C100.022 34.7815 89.0178 41.866 97.5002 49.5001C109.5 60.3001 112.5 41.0319 112.5 30.0479Z" fill="#FBC9D7"/>
</svg>
