<svg width="308" height="507" viewBox="0 0 308 507" fill="none" xmlns="http://www.w3.org/2000/svg">
<path d="M229.145 312.22H118.463C113.175 312.22 111.856 308.917 111.859 307.265V292.397C111.308 280.283 103.599 251.098 77.1674 231.274C50.736 211.451 40.8222 177.861 39.1692 163.544C33.6627 109.029 53.0457 0 174.63 0C296.214 0 313.395 109.029 306.787 163.544C304.033 178.412 292.91 212.772 270.444 231.274C247.977 249.776 237.955 279.732 235.752 292.397V307.265C235.752 311.229 231.347 312.22 229.145 312.22Z" fill="#121212"/>
<path d="M220.888 327.088H126.726V340.304C126.726 344.268 131.131 345.26 133.334 345.26H212.628C216.593 345.26 219.787 341.956 220.888 340.304V327.088Z" fill="#121212"/>
<path d="M207.672 360.127H139.942V376.647C139.942 379.29 142.144 379.951 143.246 379.951H204.368C207.011 379.951 207.672 376.647 207.672 374.995V360.127Z" fill="#121212"/>
<path d="M287.786 128.855V133.81M286.135 160.242C282.831 181.717 263.048 211.056 244.836 218.06C223.36 226.32 209.043 270.372 205.189 287.443M163.89 19.8252H168.845M142.414 23.1291C118.736 28.6356 71.0725 47.851 60.5 106" stroke="white" stroke-width="12" stroke-linecap="round" stroke-linejoin="round"/>
<path d="M141.77 389.087V410.902C141.77 428.354 158.878 432.717 167.432 432.717H215.092C204.093 479.983 233.422 498.162 251.753 494.526C270.083 490.89 288.414 476.347 281.082 429.081C275.216 391.269 249.309 381.816 237.088 381.816C228.534 387.875 207.759 401.449 193.095 407.266C178.431 413.084 167.432 402.418 163.766 396.359V385.451L149.102 378.18L141.77 389.087Z" fill="white"/>
<path d="M215.092 432.717C204.093 479.983 233.422 498.162 251.753 494.526C270.083 490.89 288.414 476.347 281.082 429.081C275.216 391.269 249.309 381.816 237.088 381.816C228.534 387.875 207.759 401.449 193.095 407.266C178.431 413.084 167.432 402.418 163.766 396.359V385.451L149.102 378.18L141.77 389.087V410.902C141.77 428.354 158.878 432.717 167.432 432.717H215.092ZM215.092 432.717L229.756 410.902" stroke="black" stroke-width="3" stroke-linejoin="round"/>
<path d="M24.707 418.306C36.9154 417.095 67.192 426.299 90.632 472.803" stroke="black" stroke-width="8"/>
<path d="M196.843 381.97C190.125 374.078 171.205 389.237 171.205 389.237L105.28 451C95.5133 438.89 70.8522 412.489 50.3422 403.769C29.8321 395.05 14.9383 402.558 10.0552 407.402C6.39266 412.247 -0.199845 427.022 2.73016 447.367C5.66016 467.713 43.0177 494.598 61.3302 505.498H68.6552H97.9552L105.28 498.231L193.18 403.769C193.18 403.769 202.455 388.565 196.843 381.97Z" fill="white" stroke="black" stroke-width="3" stroke-linejoin="round"/>
<path d="M24.707 418.308C36.9154 417.097 67.192 426.301 90.632 472.805" stroke="black" stroke-width="3" stroke-linecap="round"/>
<ellipse cx="117.538" cy="135.844" rx="25.0297" ry="44.0967" fill="white"/>
<ellipse cx="193.227" cy="135.844" rx="25.0297" ry="44.0967" fill="white"/>
<ellipse cx="107.726" cy="135.842" rx="15.2181" ry="26.6169" fill="black"/>
<ellipse cx="183.415" cy="135.842" rx="15.2181" ry="26.6169" fill="black"/>
</svg>
