<svg width="94" height="142" viewBox="0 0 94 142" fill="none" xmlns="http://www.w3.org/2000/svg">
<path d="M40.5892 80.5115C37.8463 79.9856 36.52 86.5857 36.52 86.5857L33.4295 116.611C29.3327 115.71 19.7035 114.335 13.9608 116.054C8.21813 117.772 7.5152 119.82 7.33237 121.725C7.4025 123.415 8.13681 125.547 11.3362 126.475C16.6808 128.024 27.7688 129.606 33.4292 128.745L36.6753 127.934L39.4112 127.323L41.239 124.582L41.5133 121.725L43.5612 85.8665C43.5612 85.8665 42.881 80.9509 40.5892 80.5115Z" fill="white" stroke="#121212" stroke-width="3"/>
<path d="M53.4108 80.5115C56.1537 79.9856 57.48 86.5857 57.48 86.5857L60.5705 116.611C64.6673 115.71 74.2965 114.335 80.0392 116.054C85.7819 117.772 86.4848 119.82 86.6676 121.725C86.5975 123.415 85.8632 125.547 82.6638 126.475C77.3192 128.024 66.2312 129.606 60.5708 128.745L57.3247 127.934L54.5888 127.323L52.761 124.582L52.4867 121.725L50.4388 85.8665C50.4388 85.8665 51.119 80.9509 53.4108 80.5115Z" fill="white" stroke="#121212" stroke-width="3"/>
<path fill-rule="evenodd" clip-rule="evenodd" d="M46.991 10.6656C71.2098 -23.596 133.993 30.5303 46.991 90.1359C-40.0109 30.5361 22.7723 -23.596 46.991 10.6656Z" fill="#121212"/>
<ellipse cx="35.7836" cy="38.9622" rx="6.70548" ry="12.3215" fill="white"/>
<ellipse cx="56.057" cy="38.9622" rx="6.70548" ry="12.3215" fill="white"/>
<ellipse cx="38.409" cy="38.9627" rx="4.07693" ry="7.43732" fill="#121212"/>
<ellipse cx="53.4285" cy="38.9627" rx="4.07693" ry="7.43732" fill="#121212"/>
<path d="M71.3053 6.21527C76.873 8.37085 83.7048 14.0364 85.3195 29.4442M85.2807 36.9354L84.7718 39.886" stroke="white" stroke-width="3" stroke-linecap="round" stroke-linejoin="round"/>
</svg>
