<svg width="1920" height="80" viewBox="0 0 1920 80" fill="none" xmlns="http://www.w3.org/2000/svg">
<path d="M1573.33 46.8086V48.5273H1555.71V46.8086H1563.46V43.4355H1557.86V37.3125H1569.16V34.6055H1557.81V32.9297H1571.18V38.9453H1559.88V41.7598H1571.63V43.4355H1565.48V46.8086H1573.33ZM1589.98 33.5312V35.5938C1589.98 38.0859 1589.98 40.793 1589.27 44.8965L1587.18 44.7031C1587.96 40.8574 1587.96 38.0215 1587.96 35.5938V35.207H1576.61V33.5312H1589.98ZM1592.28 46.4004V48.0977H1574.72V46.4004H1592.28ZM1598.89 33.0156C1601.77 33.0156 1603.81 35.6367 1603.83 39.7617C1603.81 43.9082 1601.77 46.5293 1598.89 46.5293C1596.01 46.5293 1593.95 43.9082 1593.97 39.7617C1593.95 35.6367 1596.01 33.0156 1598.89 33.0156ZM1598.89 34.8418C1597.13 34.8418 1595.93 36.7324 1595.93 39.7617C1595.93 42.8125 1597.13 44.7031 1598.89 44.7031C1600.68 44.7031 1601.88 42.8125 1601.88 39.7617C1601.88 36.7324 1600.68 34.8418 1598.89 34.8418ZM1608.73 31.5762V39.1172H1611.83V40.8359H1608.73V50.8262H1606.69V31.5762H1608.73ZM1630.35 40.2559V41.9531H1622.5V43.9727H1620.48V41.9531H1612.75V40.2559H1630.35ZM1622.53 45.3477C1622.53 47.2812 1625.23 48.8281 1628.97 49.1934L1628.35 50.7402C1625.2 50.4072 1622.63 49.2686 1621.47 47.5176C1620.31 49.2471 1617.77 50.418 1614.64 50.7402L1613.97 49.1934C1617.67 48.8281 1620.42 47.2383 1620.42 45.3477V44.8105H1622.53V45.3477ZM1621.52 31.8555C1625.77 31.8555 1628.39 33.123 1628.39 35.4219C1628.39 37.6777 1625.77 38.9668 1621.52 38.9668C1617.28 38.9668 1614.64 37.6777 1614.64 35.4219C1614.64 33.123 1617.28 31.8555 1621.52 31.8555ZM1621.52 33.4023C1618.53 33.3809 1616.72 34.1328 1616.75 35.4219C1616.72 36.668 1618.53 37.3984 1621.52 37.3984C1624.5 37.3984 1626.29 36.668 1626.29 35.4219C1626.29 34.1328 1624.5 33.3809 1621.52 33.4023Z" fill="#121212"/>
<path d="M1383.44 33.4883V45.9922H1374.44V33.4883H1383.44ZM1376.44 35.0996V44.3379H1381.42V35.0996H1376.44ZM1388.71 31.5762V39.1172H1391.8V40.8359H1388.71V50.8262H1386.66V31.5762H1388.71ZM1408.66 31.5762V50.8691H1406.62V31.5762H1408.66ZM1398.37 33.0156C1401.23 33.0156 1403.34 35.6367 1403.34 39.7617C1403.34 43.9082 1401.23 46.5293 1398.37 46.5293C1395.47 46.5293 1393.39 43.9082 1393.39 39.7617C1393.39 35.6367 1395.47 33.0156 1398.37 33.0156ZM1398.37 34.8418C1396.59 34.8418 1395.37 36.7324 1395.37 39.7617C1395.37 42.8125 1396.59 44.7031 1398.37 44.7031C1400.13 44.7031 1401.36 42.8125 1401.36 39.7617C1401.36 36.7324 1400.13 34.8418 1398.37 34.8418ZM1428.39 31.5762V50.8262H1426.43V31.5762H1428.39ZM1424.58 32.0059V49.8379H1422.65V40.6211H1420.24V38.7949H1422.65V32.0059H1424.58ZM1420.76 33.9395V35.6152H1419.28V44.209C1419.93 44.166 1420.57 44.0908 1421.15 44.0156L1421.3 45.498C1418.25 46.0996 1414.25 46.1855 1411.76 46.1855L1411.52 44.4668L1413.41 44.4453V35.6152H1411.93V33.9395H1420.76ZM1415.26 44.4238C1415.96 44.4023 1416.68 44.3809 1417.39 44.3379V35.6152H1415.26V44.4238ZM1446.69 31.5762V50.8691H1444.65V31.5762H1446.69ZM1436.4 33.0156C1439.26 33.0156 1441.36 35.6367 1441.36 39.7617C1441.36 43.9082 1439.26 46.5293 1436.4 46.5293C1433.5 46.5293 1431.42 43.9082 1431.42 39.7617C1431.42 35.6367 1433.5 33.0156 1436.4 33.0156ZM1436.4 34.8418C1434.62 34.8418 1433.39 36.7324 1433.39 39.7617C1433.39 42.8125 1434.62 44.7031 1436.4 44.7031C1438.16 44.7031 1439.39 42.8125 1439.39 39.7617C1439.39 36.7324 1438.16 34.8418 1436.4 34.8418ZM1456.85 37.248C1456.85 40.4707 1458.96 43.8008 1461.92 45.0684L1460.81 46.6582C1458.54 45.6592 1456.74 43.543 1455.84 40.9648C1454.95 43.7148 1453.14 46.0566 1450.9 47.1523L1449.72 45.541C1452.62 44.1875 1454.77 40.5566 1454.79 37.248V35.207H1450.39V33.5098H1461.24V35.207H1456.85V37.248ZM1465.71 31.5762V50.8262H1463.66V31.5762H1465.71Z" fill="#121212"/>
<path d="M1167.53 35.3145C1167.53 37.1406 1168.99 39.0098 1171.4 39.8262L1170.52 41.3301C1168.64 40.707 1167.31 39.4609 1166.61 37.957C1165.9 39.5898 1164.58 40.9863 1162.7 41.6953L1161.75 40.1484C1164.16 39.2246 1165.6 37.2051 1165.6 35.3145V35.25H1162.25V33.6387H1165.6V31.6621H1167.53V33.6387H1170.84V35.25H1167.53V35.3145ZM1178.12 31.5977V41.8242H1176.19V37.4844H1174V41.6738H1172.04V31.9414H1174V35.8301H1176.19V31.5977H1178.12ZM1178.12 42.6191V47.2598H1167.27V49.043H1178.85V50.5898H1165.25V45.7559H1176.12V44.166H1165.21V42.6191H1178.12ZM1196.66 31.5977V45.7559H1194.64V31.5977H1196.66ZM1197.2 48.7637V50.418H1183.95V44.6387H1185.99V48.7637H1197.2ZM1190.54 32.9297V38.666H1183.73V41.4375C1187.28 41.4268 1189.68 41.3086 1192.54 40.793L1192.75 42.4688C1189.72 43.0059 1187.17 43.1133 1183.34 43.1133H1181.73V37.1191H1188.52V34.5625H1181.69V32.9297H1190.54ZM1206.83 37.248C1206.83 40.4707 1208.93 43.8008 1211.9 45.0684L1210.78 46.6582C1208.51 45.6592 1206.71 43.543 1205.82 40.9648C1204.92 43.7148 1203.11 46.0566 1200.88 47.1523L1199.69 45.541C1202.59 44.1875 1204.74 40.5566 1204.76 37.248V35.207H1200.36V33.5098H1211.21V35.207H1206.83V37.248ZM1215.68 31.5762V50.8262H1213.64V31.5762H1215.68ZM1239.61 36.4961V38.1289H1226.42V32.2852H1239.42V33.9395H1228.46V36.4961H1239.61ZM1241.67 39.5039V41.1582H1233.9V42.8555H1239.46V47.3457H1228.25V49.043H1240V50.6328H1226.25V45.8848H1237.44V44.3809H1226.23V42.8555H1231.88V41.1582H1224.12V39.5039H1241.67ZM1259.16 31.5762V50.8691H1257.14V40.5137H1253.62V38.8164H1257.14V31.5762H1259.16ZM1252.48 33.3164V40.1914H1245.88V44.5742C1248.96 44.5635 1251.32 44.4561 1254.01 43.9727L1254.18 45.6484C1251.3 46.1641 1248.76 46.2715 1245.37 46.293H1243.84V38.5371H1250.5V34.9707H1243.8V33.3164H1252.48ZM1279.77 46.7441V48.4414H1262.15V46.7441H1269.9V42.791H1264.17V32.8867H1266.21V36.1953H1275.66V32.8867H1277.68V42.791H1271.92V46.7441H1279.77ZM1266.21 41.1367H1275.66V37.8496H1266.21V41.1367ZM1297.17 31.5762V50.8262H1295.11V31.5762H1297.17ZM1291.43 33.6387C1291.43 39.2676 1289.03 44.166 1282.43 47.3242L1281.36 45.6699C1286.48 43.2314 1288.97 39.7617 1289.37 35.2715H1282.28V33.6387H1291.43Z" fill="#121212"/>
<path d="M304.128 61.144C302.208 61.112 300.368 60.856 298.608 60.376C296.88 59.896 295.328 59.112 293.952 58.024C292.576 56.936 291.488 55.48 290.688 53.656C289.92 51.832 289.536 49.576 289.536 46.888V30.616C289.536 29.08 290.032 27.944 291.024 27.208C292.048 26.44 293.232 26.056 294.576 26.056C295.888 26.056 297.056 26.44 298.08 27.208C299.104 27.944 299.616 29.08 299.616 30.616V44.632C299.616 46.904 300.144 48.568 301.2 49.624C302.288 50.68 303.68 51.16 305.376 51.064C307.168 50.936 308.448 50.248 309.216 49C310.016 47.752 310.24 46.088 309.888 44.008C309.664 42.6 309.408 41.416 309.12 40.456C308.864 39.496 308.592 38.648 308.304 37.912C308.048 37.144 307.824 36.392 307.632 35.656C307.44 34.888 307.296 33.992 307.2 32.968C307.008 30.824 307.44 29.144 308.496 27.928C309.584 26.68 311.008 26.056 312.768 26.056C314.528 26.056 315.904 26.648 316.896 27.832C317.888 29.016 318.384 30.808 318.384 33.208V46.888C318.384 49.576 318 51.848 317.232 53.704C316.496 55.528 315.456 57 314.112 58.12C312.8 59.208 311.28 59.992 309.552 60.472C307.856 60.92 306.048 61.144 304.128 61.144ZM338.163 61C336.403 61 334.931 60.456 333.747 59.368C332.595 58.28 331.859 56.872 331.539 55.144H330.675V66.184C330.675 67.496 330.307 68.6 329.571 69.496C328.835 70.424 327.715 70.888 326.211 70.888C324.771 70.888 323.651 70.424 322.851 69.496C322.083 68.6 321.699 67.464 321.699 66.088V48.136C321.699 46.536 321.635 45.192 321.507 44.104C321.411 42.984 321.315 41.976 321.219 41.08C321.091 39.736 321.363 38.6 322.035 37.672C322.707 36.712 323.795 36.136 325.299 35.944C327.251 35.688 328.627 36.04 329.427 37C330.259 37.928 330.675 39.384 330.675 41.368V43.672L330.867 43.72C331.027 42.472 331.395 41.256 331.971 40.072C332.579 38.856 333.427 37.864 334.515 37.096C335.603 36.296 336.979 35.896 338.643 35.896C341.427 35.896 343.491 37.016 344.835 39.256C346.211 41.464 346.899 44.424 346.899 48.136C346.899 56.712 343.987 61 338.163 61ZM330.483 48.04C330.483 48.552 330.547 48.952 330.675 49.24C330.867 49.848 331.267 50.296 331.875 50.584C332.515 50.84 333.459 50.968 334.707 50.968C336.307 50.968 337.395 50.728 337.971 50.248C338.579 49.768 338.883 49.032 338.883 48.04C338.883 47.016 338.595 46.28 338.019 45.832C337.443 45.352 336.355 45.112 334.755 45.112C333.475 45.112 332.515 45.256 331.875 45.544C331.267 45.8 330.867 46.232 330.675 46.84C330.547 47.128 330.483 47.528 330.483 48.04ZM362.064 26.056C365.872 26.056 368.976 26.776 371.376 28.216C373.808 29.624 375.6 31.64 376.752 34.264C377.936 36.856 378.528 39.944 378.528 43.528C378.528 49.544 377.232 53.96 374.64 56.776C372.048 59.592 368.08 61 362.736 61H360.624C359.056 61 357.6 60.84 356.256 60.52C354.912 60.2 353.728 59.624 352.704 58.792C351.68 57.928 350.88 56.728 350.304 55.192C349.728 53.656 349.44 51.672 349.44 49.24C349.44 46.968 349.744 45 350.352 43.336C350.992 41.672 351.744 40.344 352.608 39.352C353.472 38.36 354.256 37.752 354.96 37.528L354.72 36.616H353.904C352.432 36.616 351.264 36.152 350.4 35.224C349.568 34.264 349.136 32.984 349.104 31.384C349.072 29.784 349.488 28.504 350.352 27.544C351.248 26.552 352.432 26.056 353.904 26.056H362.064ZM358.608 48.616C358.608 49.288 358.752 49.752 359.04 50.008C359.36 50.264 359.824 50.392 360.432 50.392H363.024C364.656 50.392 365.92 50.04 366.816 49.336C367.712 48.632 368.336 47.736 368.688 46.648C369.072 45.528 369.264 44.344 369.264 43.096C369.264 41.848 369.072 40.648 368.688 39.496C368.336 38.344 367.712 37.4 366.816 36.664C365.92 35.928 364.656 35.56 363.024 35.56H360.432C359.824 35.56 359.36 35.704 359.04 35.992C358.752 36.248 358.608 36.728 358.608 37.432V48.616ZM387.197 61C384.829 61 382.973 60.36 381.629 59.08C380.317 57.8 379.661 56.008 379.661 53.704C379.661 51.4 380.429 49.736 381.965 48.712C383.501 47.656 385.469 47.128 387.869 47.128C389.277 47.128 390.557 47.224 391.709 47.416C392.861 47.608 393.901 47.88 394.829 48.232H394.973V47.512C394.973 46.776 394.701 46.2 394.157 45.784C393.613 45.336 392.925 45.128 392.093 45.16C391.293 45.16 390.605 45.208 390.029 45.304C389.485 45.4 388.797 45.56 387.965 45.784C386.429 46.168 385.101 46.136 383.981 45.688C382.861 45.24 382.093 44.36 381.677 43.048C381.293 41.672 381.373 40.52 381.917 39.592C382.493 38.664 383.357 37.944 384.509 37.432C385.501 36.952 386.605 36.552 387.821 36.232C389.069 35.912 390.413 35.752 391.853 35.752C396.045 35.752 399.117 36.776 401.069 38.824C403.053 40.84 404.045 44.232 404.045 49V56.44C404.045 57.752 403.645 58.84 402.845 59.704C402.045 60.568 400.941 61 399.533 61C397.997 61 396.845 60.568 396.077 59.704C395.341 58.84 394.973 57.784 394.973 56.536V55.432H394.013C394.013 56.264 393.853 57.112 393.533 57.976C393.245 58.84 392.621 59.56 391.661 60.136C390.733 60.712 389.245 61 387.197 61ZM387.677 50.488C387.677 51.032 387.869 51.416 388.253 51.64C388.669 51.864 389.549 51.976 390.893 51.976C392.109 51.976 392.957 51.864 393.437 51.64C393.917 51.416 394.157 51.032 394.157 50.488C394.157 49.976 393.917 49.624 393.437 49.432C392.957 49.208 392.109 49.096 390.893 49.096C389.549 49.096 388.669 49.208 388.253 49.432C387.869 49.624 387.677 49.976 387.677 50.488ZM414.624 70.888C412.48 70.888 410.72 70.536 409.344 69.832C408 69.128 406.944 68.2 406.176 67.048C405.536 66.056 405.168 65.016 405.072 63.928C405.008 62.84 405.216 61.832 405.696 60.904C406.176 59.944 406.896 59.208 407.856 58.696C408.848 58.152 409.84 57.944 410.832 58.072C411.824 58.168 412.736 58.536 413.568 59.176C414.4 59.784 415.04 60.584 415.488 61.576C415.968 62.632 416.448 63.4 416.928 63.88C417.44 64.392 418.096 64.504 418.896 64.216C419.664 63.96 419.936 63.256 419.712 62.104C419.52 60.952 419.104 59.592 418.464 58.024H416.688C415.312 58.024 413.936 57.528 412.56 56.536C411.184 55.544 410.032 53.976 409.104 51.832L405.168 42.712C404.56 41.272 404.496 39.944 404.976 38.728C405.488 37.512 406.4 36.632 407.712 36.088C408.928 35.544 410.128 35.512 411.312 35.992C412.496 36.472 413.424 37.496 414.096 39.064L417.744 47.56C418.352 48.936 419.008 49.928 419.712 50.536C420.448 51.144 421.216 51.24 422.016 50.824C422.72 50.44 423.104 49.912 423.168 49.24C423.232 48.536 422.896 47.688 422.16 46.696C421.84 46.248 421.456 45.752 421.008 45.208C420.592 44.664 420.208 44.04 419.856 43.336C419.536 42.6 419.376 41.784 419.376 40.888C419.376 39.384 419.888 38.152 420.912 37.192C421.936 36.2 423.28 35.704 424.944 35.704C426.448 35.704 427.648 36.184 428.544 37.144C429.472 38.104 429.936 39.352 429.936 40.888C429.936 41.976 429.808 43.176 429.552 44.488C429.296 45.8 429.008 47.016 428.688 48.136L425.232 60.76C424.72 62.648 424.048 64.36 423.216 65.896C422.384 67.432 421.28 68.648 419.904 69.544C418.528 70.44 416.768 70.888 414.624 70.888Z" fill="#121212"/>
</svg>
