<svg width="40" height="40" viewBox="0 0 40 40" fill="none" xmlns="http://www.w3.org/2000/svg">
<circle cx="20" cy="20" r="20" fill="#363636"/>
<path d="M20.8567 11.3003C21.1581 11.0017 21.5668 10.834 21.993 10.834C22.4191 10.834 22.8278 11.0017 23.1292 11.3003L30.3615 18.4675C30.6628 18.7662 30.832 19.1713 30.832 19.5936C30.832 20.0159 30.6628 20.421 30.3615 20.7197L23.1292 27.8869C22.8261 28.177 22.4201 28.3376 21.9987 28.3339C21.5773 28.3303 21.1742 28.1628 20.8763 27.8675C20.5783 27.5722 20.4093 27.1727 20.4056 26.7551C20.4019 26.3375 20.5639 25.9352 20.8567 25.6348L25.2073 21.1863H9.9392C9.51295 21.1863 9.10416 21.0185 8.80276 20.7198C8.50136 20.4211 8.33203 20.016 8.33203 19.5936C8.33203 19.1712 8.50136 18.7661 8.80276 18.4674C9.10416 18.1687 9.51295 18.0009 9.9392 18.0009H25.2073L20.8567 13.5524C20.5554 13.2537 20.3861 12.8487 20.3861 12.4264C20.3861 12.004 20.5554 11.599 20.8567 11.3003Z" fill="white"/>
</svg>
