<svg width="214" height="52" viewBox="0 0 214 52" fill="none" xmlns="http://www.w3.org/2000/svg">
<ellipse cx="29.5173" cy="26" rx="29.5173" ry="26" fill="#363636"/>
<ellipse cx="68.2595" cy="26" rx="29.5173" ry="26" fill="#363636"/>
<ellipse cx="107.002" cy="26" rx="29.5173" ry="26" fill="#363636"/>
<ellipse cx="145.74" cy="26" rx="29.5173" ry="26" fill="#363636"/>
<ellipse cx="184.482" cy="26" rx="29.5173" ry="26" fill="#363636"/>
<path d="M26.3125 18.5059C26.3125 19.2806 26.5085 20.0462 26.9004 20.8027C27.3014 21.5501 27.8711 22.2292 28.6094 22.8398C29.3568 23.4414 30.2318 23.9108 31.2344 24.248L30.1133 26.1621C28.9466 25.7793 27.9395 25.2142 27.0918 24.4668C26.2441 23.7194 25.5879 22.8535 25.123 21.8691C24.6673 22.9447 24.0156 23.8971 23.168 24.7266C22.3294 25.556 21.3268 26.1895 20.1602 26.627L18.957 24.6582C19.9505 24.2754 20.8164 23.7559 21.5547 23.0996C22.3021 22.4434 22.8717 21.7142 23.2637 20.9121C23.6556 20.11 23.8516 19.3079 23.8516 18.5059V18.4238H19.5859V16.373H23.8516V13.8574H26.3125V16.373H30.5234V18.4238H26.3125V18.5059ZM39.793 26.791H37.332V21.2676H34.543V26.5996H32.0547V14.2129H34.543V19.1621H37.332V13.7754H39.793V26.791ZM39.793 33.709H25.9844V35.9785H40.7227V37.9473H23.4141V31.7949H37.25V29.7715H23.3594V27.8027H39.793V33.709ZM63.3906 31.7949H60.8203V13.7754H63.3906V31.7949ZM64.0742 37.7285H47.2031V30.373H49.8008V35.623H64.0742V37.7285ZM55.5977 22.7715H46.9297V26.2988C49.3359 26.2897 51.373 26.2305 53.041 26.1211C54.709 26.0026 56.4089 25.7884 58.1406 25.4785L58.4141 27.6113C56.582 27.9395 54.7819 28.1582 53.0137 28.2676C51.2454 28.377 49.0534 28.4316 46.4375 28.4316H44.3867V20.8027H53.0273V17.5488H44.332V15.4707H55.5977V22.7715ZM76.3242 20.9668C76.3242 22.3249 76.5977 23.6693 77.1445 25C77.7005 26.3307 78.4661 27.5202 79.4414 28.5684C80.4258 29.6074 81.5378 30.3913 82.7773 30.9199L81.3555 32.9434C79.9245 32.3145 78.6576 31.3665 77.5547 30.0996C76.4518 28.8236 75.6133 27.3607 75.0391 25.7109C74.4648 27.4701 73.6217 29.0469 72.5098 30.4414C71.4069 31.8359 70.1536 32.8796 68.75 33.5723L67.2461 31.5215C68.4492 30.9564 69.543 30.1133 70.5273 28.9922C71.5117 27.862 72.2819 26.5905 72.8379 25.1777C73.403 23.7559 73.6901 22.3522 73.6992 20.9668V18.3691H68.0938V16.209H81.9023V18.3691H76.3242V20.9668ZM87.5898 38.248H84.9922V13.748H87.5898V38.248ZM118.051 22.0879H101.262V14.6504H117.805V16.7559H103.859V20.0098H118.051V22.0879ZM120.676 25.9434H110.777V28.1035H117.859V33.8184H103.586V35.9785H118.543V38.002H101.043V31.959H115.289V30.0449H101.016V28.1035H108.207V25.9434H98.3359V23.8379H120.676V25.9434ZM142.934 38.3027H140.363V25.123H135.879V22.9629H140.363V13.748H142.934V38.3027ZM134.43 24.7129H126.035V30.291C128.168 30.2819 130.018 30.2272 131.586 30.127C133.163 30.0176 134.758 29.8171 136.371 29.5254L136.59 31.6582C134.876 31.9681 133.172 32.1777 131.477 32.2871C129.79 32.3965 127.758 32.4603 125.379 32.4785H123.438V22.6074H131.914V18.0684H123.383V15.9629H134.43V24.7129ZM169.156 35.2129H146.734V33.0527H156.605V28.0215H149.305V15.416H151.902V19.627H163.934V15.416H166.504V28.0215H159.176V33.0527H169.156V35.2129ZM163.934 25.916V21.7324H151.902V25.916H163.934ZM191.305 38.248H188.68V13.748H191.305V38.248ZM184.004 16.373C184.004 20.1647 183.097 23.5371 181.283 26.4902C179.479 29.4342 176.566 31.8678 172.547 33.791L171.18 31.6855C174.397 30.1543 176.835 28.2904 178.494 26.0938C180.162 23.8971 181.124 21.3496 181.379 18.4512H172.355V16.373H184.004Z" fill="white"/>
</svg>
