<svg width="28" height="28" viewBox="0 0 28 28" fill="none" xmlns="http://www.w3.org/2000/svg">
<circle cx="14" cy="14" r="14" fill="white"/>
<path d="M14.5993 7.90992C14.8103 7.70091 15.0964 7.5835 15.3947 7.5835C15.693 7.5835 15.9791 7.70091 16.1901 7.90992L21.2526 12.927C21.4635 13.1361 21.582 13.4196 21.582 13.7152C21.582 14.0109 21.4635 14.2944 21.2526 14.5035L16.1901 19.5205C15.9779 19.7236 15.6937 19.836 15.3987 19.8335C15.1038 19.8309 14.8216 19.7137 14.613 19.5069C14.4044 19.3002 14.2861 19.0206 14.2835 18.7283C14.281 18.436 14.3944 18.1543 14.5993 17.9441L17.6447 14.8301H6.95705C6.65868 14.8301 6.37252 14.7127 6.16154 14.5036C5.95056 14.2945 5.83203 14.0109 5.83203 13.7152C5.83203 13.4195 5.95056 13.136 6.16154 12.9269C6.37252 12.7178 6.65868 12.6003 6.95705 12.6003H17.6447L14.5993 9.4864C14.3884 9.27732 14.2699 8.99379 14.2699 8.69816C14.2699 8.40253 14.3884 8.119 14.5993 7.90992Z" fill="#363636"/>
</svg>
