<svg width="709" height="355" viewBox="0 0 709 355" fill="none" xmlns="http://www.w3.org/2000/svg">
<path d="M550.707 295.02L578.184 270.041C572.689 261.549 565.07 266.503 561.947 270.041C558.825 272.539 549.958 279.658 539.467 288.151C528.975 296.644 533.846 306.26 537.593 310.007L555.078 331.863H539.467C523.98 331.863 521.357 345.602 521.981 352.471H564.445L582.555 337.484C583.055 320.498 573.604 324.162 568.817 328.117C564.029 322.08 553.58 309.008 550.083 305.011C546.586 301.015 549.042 296.685 550.707 295.02Z" fill="white" stroke="#121212" stroke-width="4"/>
<path d="M596.186 299.137L619.648 272.486C620.946 262.076 613.526 264.381 609.654 266.835L583.173 297.514C573.758 312.45 588.651 315.818 597.275 315.635L633.754 305.711L656.846 342.573C673.516 350.19 674.633 336.191 673.107 328.24C666.443 316.081 652.804 291.221 651.564 289.053C650.014 286.342 644.901 281.929 637.853 282.938C632.214 283.745 631.168 291.124 631.35 294.713C623.553 296.677 606.271 301.025 599.518 302.699C592.764 304.374 594.483 301.023 596.186 299.137Z" fill="white"/>
<path d="M633.754 305.711L656.846 342.573C673.516 350.19 674.633 336.191 673.107 328.24C666.443 316.081 652.804 291.221 651.564 289.053C650.014 286.342 644.901 281.929 637.853 282.938C632.214 283.745 631.168 291.124 631.35 294.713C623.553 296.677 606.271 301.025 599.518 302.699C592.764 304.374 594.483 301.023 596.186 299.137L619.648 272.486C620.946 262.076 613.526 264.381 609.654 266.835L583.173 297.514C573.758 312.45 588.651 315.818 597.275 315.635L633.754 305.711ZM633.754 305.711L643.047 301.835" stroke="#121212" stroke-width="4"/>
<path d="M616.152 91.1626C593 89.8219 586.14 109.596 585.604 119.651C583.676 94.1785 563.899 90.0452 554.251 91.1626C527.24 95.8543 523.167 111.552 524.507 118.814C518.88 115.183 504.088 111.943 489.94 128.031C475.791 144.118 481.902 160.988 486.726 167.412C479.758 167.412 465.662 173.109 465.019 195.9C464.376 218.691 480.294 223.272 488.333 222.713C485.761 229.416 486.19 236.678 486.726 239.471C489.941 264.943 512.182 265.166 522.9 262.094C519.685 278.182 534.423 287.79 542.194 290.583C575.636 300.637 585.604 265.166 586.408 246.174C589.624 265.446 588.82 289.745 618.564 289.745C648.308 289.745 645.092 261.256 645.896 260.418C646.7 259.58 665.994 262.932 678.052 252.877C687.699 244.833 686.359 231.092 684.483 225.227C690.646 223.83 703.616 216.177 706.188 196.738C708.761 177.299 692.79 168.529 684.483 166.574C689.628 161.211 688.235 144.789 686.895 137.247C677.891 112.446 655.811 114.066 645.896 117.976C645.628 109.597 639.304 92.5032 616.152 91.1626Z" fill="white"/>
<path d="M585.604 119.651C586.14 109.596 593 89.8219 616.152 91.1626C639.304 92.5032 645.628 109.597 645.896 117.976M585.604 119.651C583.676 94.1785 563.899 90.0452 554.251 91.1626C527.24 95.8543 523.167 111.552 524.507 118.814M585.604 119.651V142.112M645.896 117.976C655.811 114.066 677.891 112.446 686.895 137.247C688.235 144.789 689.628 161.211 684.483 166.574M645.896 117.976C638.132 120.994 621.313 132.56 616.152 154.68M684.483 166.574C692.79 168.529 708.761 177.299 706.188 196.738C703.616 216.177 690.646 223.83 684.483 225.227M684.483 166.574C675.098 164.285 653.272 162.724 641.053 174.79M684.483 225.227C686.359 231.092 687.699 244.833 678.052 252.877C665.994 262.932 646.7 259.58 645.896 260.418M684.483 225.227C680.738 217.073 667.778 200.932 645.896 201.602M645.896 260.418C645.092 261.256 648.308 289.745 618.564 289.745C588.82 289.745 589.624 265.446 586.408 246.174C585.604 265.166 575.636 300.637 542.194 290.583C534.423 287.79 519.685 278.182 522.9 262.094M645.896 260.418C639.19 258.13 623.85 249.027 616.132 230.929M522.9 262.094C512.182 265.166 489.941 264.943 486.726 239.471C486.19 236.678 485.761 229.416 488.333 222.713M522.9 262.094C530.665 258.688 547.801 248.022 554.232 232.605M488.333 222.713C480.294 223.272 464.376 218.691 465.019 195.9C465.662 173.109 479.758 167.412 486.726 167.412M488.333 222.713C491.81 216.235 506.481 203.446 537.351 204.116M486.726 167.412C481.902 160.988 475.791 144.118 489.94 128.031C504.088 111.943 518.88 115.183 524.507 118.814M486.726 167.412C495.294 165.961 517.253 166.746 536.547 181.493M524.507 118.814C533.873 123.787 552.77 138.09 553.428 155.518" stroke="#121212" stroke-width="4"/>
<circle cx="585.651" cy="195.389" r="49.8693" fill="#FFEF77"/>
<ellipse cx="552.538" cy="195.319" rx="9.48354" ry="16.7786" fill="white"/>
<ellipse cx="581.718" cy="195.319" rx="9.48354" ry="16.7786" fill="white"/>
<ellipse cx="548.526" cy="195.319" rx="5.47127" ry="10.213" fill="#121212"/>
<ellipse cx="578.435" cy="195.319" rx="6.20077" ry="10.213" fill="#121212"/>
<path d="M162.494 260L158.328 277.606L147.914 261.258L155.412 279.283L137.916 272.995L153.746 282.217L135 287.247L154.579 285.99L142.915 300.661L156.662 288.505V308.626L160.828 288.505L171.242 303.596L163.744 287.667L177.491 291.02L164.577 283.894L179.574 279.283L164.577 280.54L175.408 266.288L162.494 278.025V260Z" fill="#7A7A7A"/>
<circle cx="414.647" cy="81.6469" r="3.14695" stroke="#121212"/>
<path d="M12.9669 124.788C12.9669 128.368 10.0642 131.271 6.48347 131.271C2.90275 131.271 0 128.368 0 124.788C0 121.207 2.90275 118.304 6.48347 118.304C10.0642 118.304 12.9669 121.207 12.9669 124.788Z" fill="#7A7A7A"/>
<path d="M180.588 41.9586C185.574 46.812 198.513 55.5987 210.379 51.9186M210.379 51.9186C225.211 47.3184 249.733 25.9348 233.443 16.5299C217.153 7.12495 202.483 38.8039 210.379 51.9186ZM210.379 51.9186C210.372 53.4504 212.12 57.7945 219.167 62.9162C227.976 69.3185 241.06 68.3162 253.559 55.7873C263.558 45.7641 259.761 38.9647 256.613 36.8179C253.534 34.9307 245.701 34.4009 238.997 47.3798C232.294 60.3588 240.641 72.4621 245.653 76.8914" stroke="#121212" stroke-width="6" stroke-linejoin="round"/>
<path d="M367.889 283.744C372.675 281.122 379.907 273.571 370.548 264.341C368.244 263.642 364.273 263.502 366.826 268.537C370.016 274.829 385.969 265.915 385.437 257" stroke="#121212" stroke-width="4" stroke-linecap="round" stroke-linejoin="round"/>
<path d="M662.073 50.2277C666.859 47.6057 674.091 40.0543 664.732 30.8248C662.427 30.1256 658.457 29.9858 661.009 35.0201C664.2 41.3129 680.153 32.3982 679.621 23.4834" stroke="#121212" stroke-width="4" stroke-linecap="round" stroke-linejoin="round"/>
</svg>
