<svg width="302" height="138" viewBox="0 0 302 138" fill="none" xmlns="http://www.w3.org/2000/svg">
<path d="M32.256 111.288C28.416 111.224 24.736 110.712 21.216 109.752C17.76 108.792 14.656 107.224 11.904 105.048C9.152 102.872 6.976 99.96 5.376 96.312C3.84 92.664 3.072 88.152 3.072 82.776V50.232C3.072 47.16 4.064 44.888 6.048 43.416C8.096 41.88 10.464 41.112 13.152 41.112C15.776 41.112 18.112 41.88 20.16 43.416C22.208 44.888 23.232 47.16 23.232 50.232V78.264C23.232 82.808 24.288 86.136 26.4 88.248C28.576 90.36 31.36 91.32 34.752 91.128C38.336 90.872 40.896 89.496 42.432 87C44.032 84.504 44.48 81.176 43.776 77.016C43.328 74.2 42.816 71.832 42.24 69.912C41.728 67.992 41.184 66.296 40.608 64.824C40.096 63.288 39.648 61.784 39.264 60.312C38.88 58.776 38.592 56.984 38.4 54.936C38.016 50.648 38.88 47.288 40.992 44.856C43.168 42.36 46.016 41.112 49.536 41.112C53.056 41.112 55.808 42.296 57.792 44.664C59.776 47.032 60.768 50.616 60.768 55.416V82.776C60.768 88.152 60 92.696 58.464 96.408C56.992 100.056 54.912 103 52.224 105.24C49.6 107.416 46.56 108.984 43.104 109.944C39.712 110.84 36.096 111.288 32.256 111.288Z" fill="#07C4F8"/>
<path d="M100.326 111C96.806 111 93.862 109.912 91.494 107.736C89.19 105.56 87.718 102.744 87.078 99.288H85.35V121.368C85.35 123.992 84.614 126.2 83.142 127.992C81.67 129.848 79.43 130.776 76.422 130.776C73.542 130.776 71.302 129.848 69.702 127.992C68.166 126.2 67.398 123.928 67.398 121.176V85.272C67.398 82.072 67.27 79.384 67.014 77.208C66.822 74.968 66.63 72.952 66.438 71.16C66.182 68.472 66.726 66.2 68.07 64.344C69.414 62.424 71.59 61.272 74.598 60.888C78.502 60.376 81.254 61.08 82.854 63C84.518 64.856 85.35 67.768 85.35 71.736V76.344L85.734 76.44C86.054 73.944 86.79 71.512 87.942 69.144C89.158 66.712 90.854 64.728 93.03 63.192C95.206 61.592 97.958 60.792 101.286 60.792C106.854 60.792 110.982 63.032 113.67 67.512C116.422 71.928 117.798 77.848 117.798 85.272C117.798 102.424 111.974 111 100.326 111ZM84.966 85.08C84.966 86.104 85.094 86.904 85.35 87.48C85.734 88.696 86.534 89.592 87.75 90.168C89.03 90.68 90.918 90.936 93.414 90.936C96.614 90.936 98.79 90.456 99.942 89.496C101.158 88.536 101.766 87.064 101.766 85.08C101.766 83.032 101.19 81.56 100.038 80.664C98.886 79.704 96.71 79.224 93.51 79.224C90.95 79.224 89.03 79.512 87.75 80.088C86.534 80.6 85.734 81.464 85.35 82.68C85.094 83.256 84.966 84.056 84.966 85.08Z" fill="#59CCBB"/>
<path d="M148.128 41.112C155.744 41.112 161.952 42.552 166.752 45.432C171.616 48.248 175.2 52.28 177.504 57.528C179.872 62.712 181.056 68.888 181.056 76.056C181.056 88.088 178.464 96.92 173.28 102.552C168.096 108.184 160.16 111 149.472 111H145.248C142.112 111 139.2 110.68 136.512 110.04C133.824 109.4 131.456 108.248 129.408 106.584C127.36 104.856 125.76 102.456 124.608 99.384C123.456 96.312 122.88 92.344 122.88 87.48C122.88 82.936 123.488 79 124.704 75.672C125.984 72.344 127.488 69.688 129.216 67.704C130.944 65.72 132.512 64.504 133.92 64.056L133.44 62.232H131.808C128.864 62.232 126.528 61.304 124.8 59.448C123.136 57.528 122.272 54.968 122.208 51.768C122.144 48.568 122.976 46.008 124.704 44.088C126.496 42.104 128.864 41.112 131.808 41.112H148.128ZM141.216 86.232C141.216 87.576 141.504 88.504 142.08 89.016C142.72 89.528 143.648 89.784 144.864 89.784H150.048C153.312 89.784 155.84 89.08 157.632 87.672C159.424 86.264 160.672 84.472 161.376 82.296C162.144 80.056 162.528 77.688 162.528 75.192C162.528 72.696 162.144 70.296 161.376 67.992C160.672 65.688 159.424 63.8 157.632 62.328C155.84 60.856 153.312 60.12 150.048 60.12H144.864C143.648 60.12 142.72 60.408 142.08 60.984C141.504 61.496 141.216 62.456 141.216 63.864V86.232Z" fill="#FFEBA9"/>
<path d="M198.394 111C193.658 111 189.946 109.72 187.258 107.16C184.634 104.6 183.322 101.016 183.322 96.408C183.322 91.8 184.858 88.472 187.93 86.424C191.002 84.312 194.938 83.256 199.738 83.256C202.554 83.256 205.114 83.448 207.418 83.832C209.722 84.216 211.802 84.76 213.658 85.464H213.946V84.024C213.946 82.552 213.402 81.4 212.314 80.568C211.226 79.672 209.85 79.256 208.186 79.32C206.586 79.32 205.21 79.416 204.058 79.608C202.97 79.8 201.594 80.12 199.93 80.568C196.858 81.336 194.202 81.272 191.962 80.376C189.722 79.48 188.186 77.72 187.354 75.096C186.586 72.344 186.746 70.04 187.834 68.184C188.986 66.328 190.714 64.888 193.018 63.864C195.002 62.904 197.21 62.104 199.642 61.464C202.138 60.824 204.826 60.504 207.706 60.504C216.09 60.504 222.234 62.552 226.138 66.648C230.106 70.68 232.09 77.464 232.09 87V101.88C232.09 104.504 231.29 106.68 229.69 108.408C228.09 110.136 225.882 111 223.066 111C219.994 111 217.69 110.136 216.154 108.408C214.682 106.68 213.946 104.568 213.946 102.072V99.864H212.026C212.026 101.528 211.706 103.224 211.066 104.952C210.49 106.68 209.242 108.12 207.322 109.272C205.466 110.424 202.49 111 198.394 111ZM199.354 89.976C199.354 91.064 199.738 91.832 200.506 92.28C201.338 92.728 203.098 92.952 205.786 92.952C208.218 92.952 209.914 92.728 210.874 92.28C211.834 91.832 212.314 91.064 212.314 89.976C212.314 88.952 211.834 88.248 210.874 87.864C209.914 87.416 208.218 87.192 205.786 87.192C203.098 87.192 201.338 87.416 200.506 87.864C199.738 88.248 199.354 88.952 199.354 89.976Z" fill="#B2E0FF"/>
<path d="M238.405 59.64C236.549 55.672 236.133 52.12 237.157 48.984C238.181 45.784 240.133 43.544 243.013 42.264C245.957 40.984 248.933 40.984 251.941 42.264C255.013 43.48 257.253 46.072 258.661 50.04C259.365 52.024 259.877 54.328 260.197 56.952C260.517 59.512 260.869 62.008 261.253 64.44C261.701 66.808 262.405 68.792 263.365 70.392C264.389 71.928 265.957 72.696 268.069 72.696C270.181 72.696 271.749 71.928 272.773 70.392C273.797 68.792 274.501 66.808 274.885 64.44C275.333 62.008 275.685 59.512 275.941 56.952C276.261 54.328 276.773 52.024 277.477 50.04C278.949 46.072 281.189 43.48 284.197 42.264C287.205 40.984 290.181 40.984 293.125 42.264C296.005 43.544 297.957 45.784 298.981 48.984C300.005 52.12 299.589 55.672 297.733 59.64C296.773 61.688 295.493 63.64 293.893 65.496C292.357 67.288 290.661 69.144 288.805 71.064C286.949 72.984 285.093 75.128 283.237 77.496C281.381 79.8 279.685 82.456 278.149 85.464V101.88C278.149 104.504 277.189 106.68 275.269 108.408C273.349 110.136 270.949 111 268.069 111C265.253 111 262.853 110.136 260.869 108.408C258.949 106.68 257.989 104.504 257.989 101.88V85.464C256.517 82.456 254.853 79.8 252.997 77.496C251.141 75.128 249.285 72.984 247.429 71.064C245.573 69.144 243.845 67.288 242.245 65.496C240.645 63.64 239.365 61.688 238.405 59.64Z" fill="#FF99B6"/>
<circle cx="18" cy="29" r="6" fill="#606060"/>
<circle cx="44" cy="29" r="6" fill="#606060"/>
</svg>
