<svg width="630" height="411" viewBox="0 0 630 411" fill="none" xmlns="http://www.w3.org/2000/svg">
<path d="M435.757 337.535L469.661 306.714C462.881 296.235 453.479 302.348 449.626 306.714C445.774 309.796 434.832 318.58 421.887 329.059C408.942 339.539 414.952 351.405 419.576 356.028L441.151 382.997H421.887C402.778 382.997 399.542 399.948 400.312 408.424H452.709L475.055 389.931C475.671 368.973 464.01 373.493 458.103 378.373C452.195 370.925 439.302 354.795 434.987 349.864C430.672 344.932 433.703 339.59 435.757 337.535Z" fill="white" stroke="#121212" stroke-width="4"/>
<path d="M491.873 342.616L520.823 309.731C522.425 296.886 513.27 299.73 508.492 302.758L475.816 340.614C464.199 359.043 482.576 363.199 493.216 362.973L538.228 350.727L566.722 396.212C587.291 405.611 588.669 388.337 586.787 378.526C578.564 363.523 561.734 332.849 560.204 330.173C558.292 326.828 551.983 321.382 543.286 322.627C536.329 323.623 535.038 332.728 535.262 337.157C525.641 339.58 504.317 344.945 495.984 347.011C487.651 349.078 489.771 344.942 491.873 342.616Z" fill="white"/>
<path d="M538.228 350.727L566.722 396.212C587.291 405.611 588.669 388.337 586.787 378.526C578.564 363.523 561.734 332.849 560.204 330.173C558.292 326.828 551.983 321.382 543.286 322.627C536.329 323.623 535.038 332.728 535.262 337.157C525.641 339.58 504.317 344.945 495.984 347.011C487.651 349.078 489.771 344.942 491.873 342.616L520.823 309.731C522.425 296.886 513.27 299.73 508.492 302.758L475.816 340.614C464.199 359.043 482.576 363.199 493.216 362.973L538.228 350.727ZM538.228 350.727L549.695 345.945" stroke="#121212" stroke-width="4"/>
<path d="M516.508 85.9936C487.94 84.3393 479.476 108.739 478.814 121.146C476.435 89.715 452.032 84.6148 440.128 85.9936C406.799 91.7827 401.773 111.152 403.426 120.113C396.483 115.632 378.231 111.635 360.773 131.485C343.315 151.336 350.855 172.152 356.807 180.078C348.21 180.078 330.817 187.108 330.023 215.23C329.23 243.352 348.871 249.004 358.791 248.315C355.617 256.586 356.146 265.546 356.807 268.992C360.775 300.422 388.218 300.698 401.444 296.907C397.476 316.758 415.661 328.613 425.25 332.059C466.514 344.466 478.814 300.698 479.806 277.263C483.774 301.043 482.782 331.026 519.483 331.026C556.185 331.026 552.217 295.873 553.209 294.839C554.201 293.806 578.007 297.941 592.886 285.535C604.79 275.609 603.136 258.653 600.822 251.416C608.427 249.693 624.43 240.25 627.604 216.264C630.778 192.278 611.072 181.457 600.822 179.044C607.17 172.427 605.451 152.163 603.798 142.858C592.688 112.255 565.443 114.254 553.209 119.079C552.879 108.74 545.075 87.6478 516.508 85.9936Z" fill="white"/>
<path d="M478.814 121.146C479.476 108.739 487.94 84.3393 516.508 85.9936C545.075 87.6478 552.879 108.74 553.209 119.079M478.814 121.146C476.435 89.715 452.032 84.6148 440.128 85.9936C406.799 91.7827 401.773 111.152 403.426 120.113M478.814 121.146V148.86M553.209 119.079C565.443 114.254 592.688 112.255 603.798 142.858C605.451 152.163 607.17 172.427 600.822 179.044M553.209 119.079C543.629 122.802 522.876 137.074 516.508 164.368M600.822 179.044C611.072 181.457 630.778 192.278 627.604 216.264C624.43 240.25 608.427 249.693 600.822 251.416M600.822 179.044C589.241 176.22 562.31 174.294 547.233 189.182M600.822 251.416C603.136 258.653 604.79 275.609 592.886 285.535C578.007 297.941 554.201 293.806 553.209 294.839M600.822 251.416C596.201 241.355 580.209 221.439 553.209 222.266M553.209 294.839C552.217 295.873 556.185 331.026 519.483 331.026C482.782 331.026 483.774 301.043 479.806 277.263C478.814 300.698 466.514 344.466 425.25 332.059C415.661 328.613 397.476 316.758 401.444 296.907M553.209 294.839C544.935 292.015 526.006 280.784 516.483 258.452M401.444 296.907C388.218 300.698 360.775 300.422 356.807 268.992C356.146 265.546 355.617 256.586 358.791 248.315M401.444 296.907C411.024 292.705 432.169 279.543 440.104 260.52M358.791 248.315C348.871 249.004 329.23 243.352 330.023 215.23C330.817 187.108 348.21 180.078 356.807 180.078M358.791 248.315C363.081 240.321 381.184 224.541 419.274 225.368M356.807 180.078C350.855 172.152 343.315 151.336 360.773 131.485C378.231 111.635 396.483 115.632 403.426 120.113M356.807 180.078C367.38 178.288 394.476 179.256 418.282 197.453M403.426 120.113C414.983 126.249 438.3 143.897 439.112 165.402" stroke="#121212" stroke-width="4"/>
<circle cx="478.874" cy="214.6" r="61.5341" fill="#FFEF77"/>
<ellipse cx="438.018" cy="214.512" rx="11.7018" ry="20.7032" fill="white"/>
<ellipse cx="474.022" cy="214.512" rx="11.7018" ry="20.7032" fill="white"/>
<ellipse cx="433.067" cy="214.514" rx="6.75104" ry="12.6019" fill="#121212"/>
<ellipse cx="469.971" cy="214.514" rx="7.65118" ry="12.6019" fill="#121212"/>
<path d="M185.925 158L180.785 179.724L167.935 159.552L177.187 181.793L155.598 174.034L175.131 185.414L152 191.621L176.159 190.069L161.766 208.172L178.729 193.172V218L183.869 193.172L196.72 211.793L187.467 192.138L204.43 196.276L188.495 187.483L207 181.793L188.495 183.345L201.86 165.759L185.925 180.241V158Z" fill="#555555"/>
<circle cx="289.5" cy="77.5" r="4" stroke="#121212"/>
<circle cx="8" cy="125" r="8" fill="#555555"/>
<path d="M176.722 51.7731C182.875 57.7617 198.84 68.6037 213.481 64.0627M213.481 64.0627C231.783 58.3866 262.041 32.0012 241.941 20.3963C221.841 8.79153 203.739 47.8805 213.481 64.0627ZM213.481 64.0627C213.473 65.9528 215.63 71.313 224.326 77.6328C235.195 85.5326 251.34 84.2959 266.762 68.8363C279.1 56.4687 274.415 48.0788 270.53 45.4299C266.731 43.1012 257.066 42.4475 248.794 58.4623C240.522 74.4771 250.822 89.4115 257.007 94.8768" stroke="#121212" stroke-width="6" stroke-linejoin="round"/>
<path d="M280.331 281C286.236 277.765 295.16 268.447 283.612 257.059C280.769 256.196 275.869 256.023 279.019 262.235C282.956 270 302.64 259 301.984 248" stroke="#121212" stroke-width="4" stroke-linecap="round" stroke-linejoin="round"/>
<path d="M518.331 41C524.236 37.7647 533.16 28.447 521.612 17.0587C518.769 16.1959 513.869 16.0234 517.019 22.2352C520.956 29.9999 540.64 19.0001 539.984 8" stroke="#121212" stroke-width="4" stroke-linecap="round" stroke-linejoin="round"/>
</svg>
