<svg width="171" height="144" viewBox="0 0 171 144" fill="none" xmlns="http://www.w3.org/2000/svg">
<path d="M106.514 1.11459C90.3525 0.169667 85.5638 14.1072 85.1897 21.1941C83.8435 3.24032 70.0378 0.327013 63.3032 1.11459C44.4479 4.42146 41.6046 15.4854 42.5399 20.6039C38.6117 18.0448 28.2861 15.7612 18.4095 27.1003C8.53286 38.4393 12.7985 50.3295 16.1659 54.8572C11.302 54.8572 1.46214 58.8731 1.0132 74.9368C0.564265 91.0004 11.6762 94.2288 17.2882 93.8351C15.4925 98.5597 15.7918 103.678 16.1659 105.647C18.4106 123.6 33.9361 123.758 41.4183 121.592C39.1736 132.931 49.4618 139.703 54.8864 141.672C78.2312 148.758 85.1897 123.758 85.7509 110.371C87.9956 123.954 87.4344 141.081 108.198 141.081C128.961 141.081 126.716 121.002 127.278 120.411C127.839 119.82 141.307 122.183 149.725 115.096C156.459 109.426 155.523 99.7409 154.214 95.6068C158.516 94.6226 167.57 89.2286 169.366 75.5273C171.161 61.826 160.013 55.6447 154.214 54.2667C157.805 50.487 156.833 38.9117 155.897 33.5966C149.612 16.1156 134.199 17.2574 127.278 20.0134C127.091 14.1075 122.676 2.0595 106.514 1.11459Z" fill="white"/>
<path d="M85.1897 21.1941C85.5638 14.1072 90.3525 0.169667 106.514 1.11459C122.676 2.0595 127.091 14.1075 127.278 20.0134M85.1897 21.1941C83.8435 3.24032 70.0378 0.327013 63.3032 1.11459C44.4479 4.42146 41.6046 15.4854 42.5399 20.6039M85.1897 21.1941V37.025M127.278 20.0134C134.199 17.2574 149.612 16.1156 155.897 33.5966C156.833 38.9117 157.805 50.487 154.214 54.2667M127.278 20.0134C121.858 22.1405 110.117 30.2925 106.514 45.8836M154.214 54.2667C160.013 55.6447 171.161 61.826 169.366 75.5273C167.57 89.2286 158.516 94.6226 154.214 95.6068M154.214 54.2667C147.662 52.6535 132.426 51.5531 123.897 60.0574M154.214 95.6068C155.523 99.7409 156.459 109.426 149.725 115.096C141.307 122.183 127.839 119.82 127.278 120.411M154.214 95.6068C151.6 89.8596 142.553 78.4833 127.278 78.9558M127.278 120.411C126.716 121.002 128.961 141.081 108.198 141.081C87.4344 141.081 87.9956 123.954 85.7509 110.371C85.1897 123.758 78.2312 148.759 54.8864 141.672C49.4618 139.703 39.1736 132.931 41.4183 121.592M127.278 120.411C122.597 118.798 111.888 112.382 106.5 99.6259M41.4183 121.592C33.9361 123.758 18.4106 123.6 16.1659 105.647C15.7918 103.678 15.4925 98.5597 17.2882 93.8351M41.4183 121.592C46.8383 119.191 58.8007 111.674 63.2901 100.807M17.2882 93.8351C11.6762 94.2288 0.564265 91.0004 1.0132 74.9368C1.46214 58.8731 11.302 54.8572 16.1659 54.8572M17.2882 93.8351C19.7152 89.269 29.9565 80.255 51.5055 80.7275M16.1659 54.8572C12.7985 50.3295 8.53286 38.4393 18.4095 27.1003C28.2861 15.7612 38.6117 18.0448 42.5399 20.6039M16.1659 54.8572C22.147 53.8346 37.4762 54.3879 50.9443 64.782M42.5399 20.6039C49.0781 24.1091 62.2695 34.1903 62.7289 46.4742" stroke="#121212" stroke-width="2"/>
<path d="M119.538 74.579C119.538 93.7199 104.172 109.228 85.2262 109.228C66.2806 109.228 50.9141 93.7199 50.9141 74.579C50.9141 55.4382 66.2806 39.9297 85.2262 39.9297C104.172 39.9297 119.538 55.4382 119.538 74.579Z" fill="#FFEF77" stroke="#121212"/>
<ellipse cx="62.1084" cy="74.5233" rx="6.62014" ry="11.826" fill="white"/>
<ellipse cx="82.4795" cy="74.5233" rx="6.62014" ry="11.826" fill="white"/>
<ellipse cx="65.6592" cy="74.5266" rx="3.81931" ry="7.19845" fill="#121212"/>
<ellipse cx="80.1879" cy="74.5266" rx="4.32855" ry="7.19845" fill="#121212"/>
</svg>
