<svg width="28" height="28" viewBox="0 0 28 28" fill="none" xmlns="http://www.w3.org/2000/svg">
<circle cx="14" cy="14" r="14" transform="matrix(-1 0 0 1 28 0)" fill="white"/>
<path d="M13.4007 7.90992C13.1897 7.70091 12.9036 7.5835 12.6053 7.5835C12.307 7.5835 12.0209 7.70091 11.8099 7.90992L6.74736 12.927C6.53645 13.1361 6.41797 13.4196 6.41797 13.7152C6.41797 14.0109 6.53645 14.2944 6.74736 14.5035L11.8099 19.5205C12.0221 19.7236 12.3063 19.836 12.6013 19.8335C12.8962 19.8309 13.1784 19.7137 13.387 19.5069C13.5956 19.3002 13.7139 19.0206 13.7165 18.7283C13.719 18.436 13.6056 18.1543 13.4007 17.9441L10.3553 14.8301H21.043C21.3413 14.8301 21.6275 14.7127 21.8385 14.5036C22.0494 14.2945 22.168 14.0109 22.168 13.7152C22.168 13.4195 22.0494 13.136 21.8385 12.9269C21.6275 12.7178 21.3413 12.6003 21.043 12.6003H10.3553L13.4007 9.4864C13.6116 9.27732 13.7301 8.99379 13.7301 8.69816C13.7301 8.40253 13.6116 8.119 13.4007 7.90992Z" fill="#363636"/>
</svg>
