<svg width="56" height="157" viewBox="0 0 56 157" fill="none" xmlns="http://www.w3.org/2000/svg">
<path d="M7.83363 33.2367C5.57669 50.8772 17.5695 58.4527 23.848 60.0354L21.5246 152.744C21.4582 155.834 23.9309 156.822 25.1756 156.929C27.7755 156.983 33.7719 157.058 36.9581 156.929C40.1444 156.8 40.9963 154.085 41.0239 152.744L37.7049 60.0354C43.9834 58.4527 55.9762 50.8772 53.7193 33.2367C50.8981 11.1862 40.1942 0 30.9839 0C21.7736 0 10.6548 11.1862 7.83363 33.2367Z" fill="#121212"/>
<path d="M53.9992 19.7849C52.6528 20.2741 49.9602 22.2307 49.9602 26.1441C49.9602 21.622 47.0492 20.0204 45.5938 19.7849C48.9189 19.7849 49.868 16.6101 49.9689 14.3816C49.9446 14.0301 49.944 13.7056 49.9602 13.4258C49.9798 13.7111 49.9846 14.0349 49.9689 14.3816C50.1082 16.3974 51.0247 19.3036 53.9992 19.7849Z" fill="white"/>
<path d="M27.5031 29.1885C27.5031 34.4566 25.0793 38.7272 22.0894 38.7272C19.0996 38.7272 16.6758 34.4566 16.6758 29.1885C16.6758 23.9204 17.4949 24.3133 21.8045 24.3133C26.1141 24.3133 27.5031 23.9204 27.5031 29.1885Z" fill="white"/>
<path d="M44.5969 29.1885C44.5969 34.4566 42.1731 38.7272 39.1832 38.7272C36.1933 38.7272 33.7695 34.4566 33.7695 29.1885C33.7695 23.9204 34.5886 24.3133 38.8983 24.3133C43.2079 24.3133 44.5969 23.9204 44.5969 29.1885Z" fill="white"/>
<path d="M29.8483 29.019C29.8483 32.3151 28.9536 35.2766 27.5334 37.3996C26.111 39.5259 24.2003 40.7641 22.1566 40.7641C20.1129 40.7641 18.2022 39.5259 16.7797 37.3996C15.3595 35.2766 14.4648 32.3151 14.4648 29.019C14.4648 27.3319 14.5434 26.1469 14.7464 25.3053C14.9456 24.4801 15.2501 24.0427 15.669 23.7749C16.1167 23.4887 16.7717 23.3441 17.7899 23.2865C18.5234 23.2451 19.3909 23.2499 20.439 23.2558C20.8404 23.2581 21.2684 23.2604 21.7254 23.2604C22.1776 23.2604 22.6055 23.2581 23.0112 23.2559C24.0847 23.25 25.0018 23.2449 25.7977 23.2866C26.8959 23.3442 27.6772 23.4891 28.2459 23.7942C28.7853 24.0836 29.1776 24.5418 29.4433 25.345C29.7166 26.1713 29.8483 27.3432 29.8483 29.019Z" stroke="white"/>
<path d="M46.9459 29.019C46.9459 32.3151 46.0513 35.2766 44.6311 37.3996C43.2086 39.5259 41.2979 40.7641 39.2542 40.7641C37.2105 40.7641 35.2998 39.5259 33.8774 37.3996C32.4572 35.2766 31.5625 32.3151 31.5625 29.019C31.5625 27.3319 31.641 26.1469 31.8441 25.3053C32.0432 24.4801 32.3478 24.0427 32.7667 23.7749C33.2144 23.4887 33.8694 23.3441 34.8876 23.2865C35.6211 23.2451 36.4886 23.2499 37.5366 23.2558C37.9381 23.2581 38.366 23.2604 38.8231 23.2604C39.2753 23.2604 39.7032 23.2581 40.1088 23.2559C41.1823 23.25 42.0994 23.2449 42.8953 23.2866C43.9936 23.3442 44.7748 23.4891 45.3436 23.7942C45.8829 24.0836 46.2753 24.5418 46.541 25.345C46.8143 26.1713 46.9459 27.3432 46.9459 29.019Z" stroke="white"/>
<path d="M22.941 26.7045C22.941 29.2857 21.7291 31.3782 20.2342 31.3782C18.7392 31.3782 17.5273 29.2857 17.5273 26.7045C17.5273 24.1233 17.9369 24.3157 20.0917 24.3157C22.2465 24.3157 22.941 24.1233 22.941 26.7045Z" fill="#121212"/>
<path d="M40.0387 26.7045C40.0387 29.2857 38.8268 31.3782 37.3318 31.3782C35.8369 31.3782 34.625 29.2857 34.625 26.7045C34.625 24.1233 35.0345 24.3157 37.1894 24.3157C39.3442 24.3157 40.0387 24.1233 40.0387 26.7045Z" fill="#121212"/>
<path d="M23.5122 87.0494C16.5889 86.2576 2.63943 80.7719 2.22747 65.1644C1.8155 49.5569 2.05581 42.7275 2.22747 41.2637" stroke="#121212" stroke-width="3" stroke-linecap="round"/>
<path d="M37.6875 86.7676L53.9997 96.2356L38.9697 113.405" stroke="#121212" stroke-width="3" stroke-linecap="round" stroke-linejoin="round"/>
<line x1="30.0664" y1="28.0352" x2="31.4911" y2="28.0352" stroke="white" stroke-width="3"/>
</svg>
